<?xml version="1.0" encoding="UTF-8"?>
<svg xmlns="http://www.w3.org/2000/svg" viewBox="0 0 920 340" width="920" height="340" role="img">
<style>text{font-family:InstrumentSans, -apple-system, BlinkMacSystemFont, 'PingFang SC', 'Microsoft YaHei', sans-serif}</style>
<rect width="920" height="340" rx="8" fill="#fbfaf6"/>
<text x="235" y="47" text-anchor="middle" fill="#1a1a2e" font-size="15" font-weight="700">时域：矩形脉冲 x(t)</text><rect x="70" y="65" width="330" height="220" fill="#ffffff" stroke="#d5d2c8" stroke-width="1"/><line x1="70.00" y1="65" x2="70.00" y2="285" stroke="#d5d2c8" stroke-opacity="0.45"/><text x="70.00" y="305" text-anchor="middle" fill="#6b6b7d" font-size="11">-4</text><line x1="152.50" y1="65" x2="152.50" y2="285" stroke="#d5d2c8" stroke-opacity="0.45"/><text x="152.50" y="305" text-anchor="middle" fill="#6b6b7d" font-size="11">-2</text><line x1="235.00" y1="65" x2="235.00" y2="285" stroke="#d5d2c8" stroke-opacity="0.45"/><text x="235.00" y="305" text-anchor="middle" fill="#6b6b7d" font-size="11">0</text><line x1="317.50" y1="65" x2="317.50" y2="285" stroke="#d5d2c8" stroke-opacity="0.45"/><text x="317.50" y="305" text-anchor="middle" fill="#6b6b7d" font-size="11">2</text><line x1="400.00" y1="65" x2="400.00" y2="285" stroke="#d5d2c8" stroke-opacity="0.45"/><text x="400.00" y="305" text-anchor="middle" fill="#6b6b7d" font-size="11">4</text><line x1="70" y1="243.75" x2="400" y2="243.75" stroke="#d5d2c8" stroke-opacity="0.35"/><text x="62" y="247.75" text-anchor="end" fill="#6b6b7d" font-size="11">0</text><line x1="70" y1="175.00" x2="400" y2="175.00" stroke="#d5d2c8" stroke-opacity="0.35"/><text x="62" y="179.00" text-anchor="end" fill="#6b6b7d" font-size="11">0.5</text><line x1="70" y1="106.25" x2="400" y2="106.25" stroke="#d5d2c8" stroke-opacity="0.35"/><text x="62" y="110.25" text-anchor="end" fill="#6b6b7d" font-size="11">1</text><line x1="70" y1="37.50" x2="400" y2="37.50" stroke="#d5d2c8" stroke-opacity="0.35"/><text x="62" y="41.50" text-anchor="end" fill="#6b6b7d" font-size="11">1.5</text><line x1="70" y1="243.75" x2="400" y2="243.75" stroke="#1a1a2e" stroke-opacity="0.55"/><line x1="235.00" y1="65" x2="235.00" y2="285" stroke="#1a1a2e" stroke-opacity="0.25"/><text x="416" y="287" fill="#6b6b7d" font-size="13" font-style="italic">t</text><path d="M70.00,243.75 L70.00,243.75 L70.83,243.75 L71.65,243.75 L72.48,243.75 L73.30,243.75 L74.13,243.75 L74.95,243.75 L75.78,243.75 L76.60,243.75 L77.43,243.75 L78.25,243.75 L79.08,243.75 L79.90,243.75 L80.73,243.75 L81.55,243.75 L82.38,243.75 L83.20,243.75 L84.03,243.75 L84.85,243.75 L85.68,243.75 L86.50,243.75 L87.33,243.75 L88.15,243.75 L88.98,243.75 L89.80,243.75 L90.63,243.75 L91.45,243.75 L92.28,243.75 L93.10,243.75 L93.93,243.75 L94.75,243.75 L95.58,243.75 L96.40,243.75 L97.23,243.75 L98.05,243.75 L98.88,243.75 L99.70,243.75 L100.53,243.75 L101.35,243.75 L102.18,243.75 L103.00,243.75 L103.83,243.75 L104.65,243.75 L105.48,243.75 L106.30,243.75 L107.13,243.75 L107.95,243.75 L108.78,243.75 L109.60,243.75 L110.43,243.75 L111.25,243.75 L112.08,243.75 L112.90,243.75 L113.73,243.75 L114.55,243.75 L115.38,243.75 L116.20,243.75 L117.03,243.75 L117.85,243.75 L118.68,243.75 L119.50,243.75 L120.33,243.75 L121.15,243.75 L121.98,243.75 L122.80,243.75 L123.63,243.75 L124.45,243.75 L125.28,243.75 L126.10,243.75 L126.93,243.75 L127.75,243.75 L128.58,243.75 L129.40,243.75 L130.23,243.75 L131.05,243.75 L131.88,243.75 L132.70,243.75 L133.53,243.75 L134.35,243.75 L135.18,243.75 L136.00,243.75 L136.83,243.75 L137.65,243.75 L138.48,243.75 L139.30,243.75 L140.13,243.75 L140.95,243.75 L141.78,243.75 L142.60,243.75 L143.43,243.75 L144.25,243.75 L145.08,243.75 L145.90,243.75 L146.73,243.75 L147.55,243.75 L148.38,243.75 L149.20,243.75 L150.03,243.75 L150.85,243.75 L151.68,243.75 L152.50,243.75 L153.33,243.75 L154.15,243.75 L154.98,243.75 L155.80,243.75 L156.63,243.75 L157.45,243.75 L158.28,243.75 L159.10,243.75 L159.93,243.75 L160.75,243.75 L161.58,243.75 L162.40,243.75 L163.23,243.75 L164.05,243.75 L164.88,243.75 L165.70,243.75 L166.53,243.75 L167.35,243.75 L168.18,243.75 L169.00,243.75 L169.83,243.75 L170.65,243.75 L171.48,243.75 L172.30,243.75 L173.13,243.75 L173.95,243.75 L174.78,243.75 L175.60,243.75 L176.43,243.75 L177.25,243.75 L178.08,243.75 L178.90,243.75 L179.73,243.75 L180.55,243.75 L181.38,243.75 L182.20,243.75 L183.03,243.75 L183.85,243.75 L184.68,243.75 L185.50,243.75 L186.33,243.75 L187.15,243.75 L187.98,243.75 L188.80,243.75 L189.63,243.75 L190.45,243.75 L191.28,243.75 L192.10,243.75 L192.93,243.75 L193.75,106.25 L194.58,106.25 L195.40,106.25 L196.23,106.25 L197.05,106.25 L197.88,106.25 L198.70,106.25 L199.53,106.25 L200.35,106.25 L201.18,106.25 L202.00,106.25 L202.83,106.25 L203.65,106.25 L204.48,106.25 L205.30,106.25 L206.13,106.25 L206.95,106.25 L207.78,106.25 L208.60,106.25 L209.43,106.25 L210.25,106.25 L211.08,106.25 L211.90,106.25 L212.73,106.25 L213.55,106.25 L214.38,106.25 L215.20,106.25 L216.03,106.25 L216.85,106.25 L217.68,106.25 L218.50,106.25 L219.33,106.25 L220.15,106.25 L220.98,106.25 L221.80,106.25 L222.63,106.25 L223.45,106.25 L224.28,106.25 L225.10,106.25 L225.93,106.25 L226.75,106.25 L227.58,106.25 L228.40,106.25 L229.23,106.25 L230.05,106.25 L230.88,106.25 L231.70,106.25 L232.53,106.25 L233.35,106.25 L234.18,106.25 L235.00,106.25 L235.83,106.25 L236.65,106.25 L237.48,106.25 L238.30,106.25 L239.13,106.25 L239.95,106.25 L240.78,106.25 L241.60,106.25 L242.43,106.25 L243.25,106.25 L244.08,106.25 L244.90,106.25 L245.73,106.25 L246.55,106.25 L247.38,106.25 L248.20,106.25 L249.03,106.25 L249.85,106.25 L250.68,106.25 L251.50,106.25 L252.33,106.25 L253.15,106.25 L253.98,106.25 L254.80,106.25 L255.63,106.25 L256.45,106.25 L257.28,106.25 L258.10,106.25 L258.93,106.25 L259.75,106.25 L260.58,106.25 L261.40,106.25 L262.23,106.25 L263.05,106.25 L263.88,106.25 L264.70,106.25 L265.53,106.25 L266.35,106.25 L267.18,106.25 L268.00,106.25 L268.83,106.25 L269.65,106.25 L270.48,106.25 L271.30,106.25 L272.13,106.25 L272.95,106.25 L273.78,106.25 L274.60,106.25 L275.43,106.25 L276.25,243.75 L277.08,243.75 L277.90,243.75 L278.73,243.75 L279.55,243.75 L280.38,243.75 L281.20,243.75 L282.03,243.75 L282.85,243.75 L283.68,243.75 L284.50,243.75 L285.33,243.75 L286.15,243.75 L286.98,243.75 L287.80,243.75 L288.63,243.75 L289.45,243.75 L290.28,243.75 L291.10,243.75 L291.93,243.75 L292.75,243.75 L293.58,243.75 L294.40,243.75 L295.23,243.75 L296.05,243.75 L296.88,243.75 L297.70,243.75 L298.53,243.75 L299.35,243.75 L300.18,243.75 L301.00,243.75 L301.83,243.75 L302.65,243.75 L303.48,243.75 L304.30,243.75 L305.13,243.75 L305.95,243.75 L306.78,243.75 L307.60,243.75 L308.43,243.75 L309.25,243.75 L310.08,243.75 L310.90,243.75 L311.73,243.75 L312.55,243.75 L313.38,243.75 L314.20,243.75 L315.03,243.75 L315.85,243.75 L316.68,243.75 L317.50,243.75 L318.33,243.75 L319.15,243.75 L319.98,243.75 L320.80,243.75 L321.63,243.75 L322.45,243.75 L323.28,243.75 L324.10,243.75 L324.93,243.75 L325.75,243.75 L326.58,243.75 L327.40,243.75 L328.23,243.75 L329.05,243.75 L329.88,243.75 L330.70,243.75 L331.53,243.75 L332.35,243.75 L333.18,243.75 L334.00,243.75 L334.83,243.75 L335.65,243.75 L336.48,243.75 L337.30,243.75 L338.13,243.75 L338.95,243.75 L339.78,243.75 L340.60,243.75 L341.43,243.75 L342.25,243.75 L343.08,243.75 L343.90,243.75 L344.73,243.75 L345.55,243.75 L346.38,243.75 L347.20,243.75 L348.03,243.75 L348.85,243.75 L349.68,243.75 L350.50,243.75 L351.33,243.75 L352.15,243.75 L352.98,243.75 L353.80,243.75 L354.63,243.75 L355.45,243.75 L356.28,243.75 L357.10,243.75 L357.93,243.75 L358.75,243.75 L359.58,243.75 L360.40,243.75 L361.23,243.75 L362.05,243.75 L362.88,243.75 L363.70,243.75 L364.53,243.75 L365.35,243.75 L366.18,243.75 L367.00,243.75 L367.83,243.75 L368.65,243.75 L369.48,243.75 L370.30,243.75 L371.13,243.75 L371.95,243.75 L372.78,243.75 L373.60,243.75 L374.43,243.75 L375.25,243.75 L376.08,243.75 L376.90,243.75 L377.73,243.75 L378.55,243.75 L379.38,243.75 L380.20,243.75 L381.03,243.75 L381.85,243.75 L382.68,243.75 L383.50,243.75 L384.33,243.75 L385.15,243.75 L385.98,243.75 L386.80,243.75 L387.63,243.75 L388.45,243.75 L389.28,243.75 L390.10,243.75 L390.93,243.75 L391.75,243.75 L392.58,243.75 L393.40,243.75 L394.23,243.75 L395.05,243.75 L395.88,243.75 L396.70,243.75 L397.53,243.75 L398.35,243.75 L399.18,243.75 L400.00,243.75 L400.00,243.75 Z" fill="#1a4d8f" fill-opacity="0.15"/><path d="M70.00,243.75 L70.83,243.75 L71.65,243.75 L72.48,243.75 L73.30,243.75 L74.13,243.75 L74.95,243.75 L75.78,243.75 L76.60,243.75 L77.43,243.75 L78.25,243.75 L79.08,243.75 L79.90,243.75 L80.73,243.75 L81.55,243.75 L82.38,243.75 L83.20,243.75 L84.03,243.75 L84.85,243.75 L85.68,243.75 L86.50,243.75 L87.33,243.75 L88.15,243.75 L88.98,243.75 L89.80,243.75 L90.63,243.75 L91.45,243.75 L92.28,243.75 L93.10,243.75 L93.93,243.75 L94.75,243.75 L95.58,243.75 L96.40,243.75 L97.23,243.75 L98.05,243.75 L98.88,243.75 L99.70,243.75 L100.53,243.75 L101.35,243.75 L102.18,243.75 L103.00,243.75 L103.83,243.75 L104.65,243.75 L105.48,243.75 L106.30,243.75 L107.13,243.75 L107.95,243.75 L108.78,243.75 L109.60,243.75 L110.43,243.75 L111.25,243.75 L112.08,243.75 L112.90,243.75 L113.73,243.75 L114.55,243.75 L115.38,243.75 L116.20,243.75 L117.03,243.75 L117.85,243.75 L118.68,243.75 L119.50,243.75 L120.33,243.75 L121.15,243.75 L121.98,243.75 L122.80,243.75 L123.63,243.75 L124.45,243.75 L125.28,243.75 L126.10,243.75 L126.93,243.75 L127.75,243.75 L128.58,243.75 L129.40,243.75 L130.23,243.75 L131.05,243.75 L131.88,243.75 L132.70,243.75 L133.53,243.75 L134.35,243.75 L135.18,243.75 L136.00,243.75 L136.83,243.75 L137.65,243.75 L138.48,243.75 L139.30,243.75 L140.13,243.75 L140.95,243.75 L141.78,243.75 L142.60,243.75 L143.43,243.75 L144.25,243.75 L145.08,243.75 L145.90,243.75 L146.73,243.75 L147.55,243.75 L148.38,243.75 L149.20,243.75 L150.03,243.75 L150.85,243.75 L151.68,243.75 L152.50,243.75 L153.33,243.75 L154.15,243.75 L154.98,243.75 L155.80,243.75 L156.63,243.75 L157.45,243.75 L158.28,243.75 L159.10,243.75 L159.93,243.75 L160.75,243.75 L161.58,243.75 L162.40,243.75 L163.23,243.75 L164.05,243.75 L164.88,243.75 L165.70,243.75 L166.53,243.75 L167.35,243.75 L168.18,243.75 L169.00,243.75 L169.83,243.75 L170.65,243.75 L171.48,243.75 L172.30,243.75 L173.13,243.75 L173.95,243.75 L174.78,243.75 L175.60,243.75 L176.43,243.75 L177.25,243.75 L178.08,243.75 L178.90,243.75 L179.73,243.75 L180.55,243.75 L181.38,243.75 L182.20,243.75 L183.03,243.75 L183.85,243.75 L184.68,243.75 L185.50,243.75 L186.33,243.75 L187.15,243.75 L187.98,243.75 L188.80,243.75 L189.63,243.75 L190.45,243.75 L191.28,243.75 L192.10,243.75 L192.93,243.75 L193.75,106.25 L194.58,106.25 L195.40,106.25 L196.23,106.25 L197.05,106.25 L197.88,106.25 L198.70,106.25 L199.53,106.25 L200.35,106.25 L201.18,106.25 L202.00,106.25 L202.83,106.25 L203.65,106.25 L204.48,106.25 L205.30,106.25 L206.13,106.25 L206.95,106.25 L207.78,106.25 L208.60,106.25 L209.43,106.25 L210.25,106.25 L211.08,106.25 L211.90,106.25 L212.73,106.25 L213.55,106.25 L214.38,106.25 L215.20,106.25 L216.03,106.25 L216.85,106.25 L217.68,106.25 L218.50,106.25 L219.33,106.25 L220.15,106.25 L220.98,106.25 L221.80,106.25 L222.63,106.25 L223.45,106.25 L224.28,106.25 L225.10,106.25 L225.93,106.25 L226.75,106.25 L227.58,106.25 L228.40,106.25 L229.23,106.25 L230.05,106.25 L230.88,106.25 L231.70,106.25 L232.53,106.25 L233.35,106.25 L234.18,106.25 L235.00,106.25 L235.83,106.25 L236.65,106.25 L237.48,106.25 L238.30,106.25 L239.13,106.25 L239.95,106.25 L240.78,106.25 L241.60,106.25 L242.43,106.25 L243.25,106.25 L244.08,106.25 L244.90,106.25 L245.73,106.25 L246.55,106.25 L247.38,106.25 L248.20,106.25 L249.03,106.25 L249.85,106.25 L250.68,106.25 L251.50,106.25 L252.33,106.25 L253.15,106.25 L253.98,106.25 L254.80,106.25 L255.63,106.25 L256.45,106.25 L257.28,106.25 L258.10,106.25 L258.93,106.25 L259.75,106.25 L260.58,106.25 L261.40,106.25 L262.23,106.25 L263.05,106.25 L263.88,106.25 L264.70,106.25 L265.53,106.25 L266.35,106.25 L267.18,106.25 L268.00,106.25 L268.83,106.25 L269.65,106.25 L270.48,106.25 L271.30,106.25 L272.13,106.25 L272.95,106.25 L273.78,106.25 L274.60,106.25 L275.43,106.25 L276.25,243.75 L277.08,243.75 L277.90,243.75 L278.73,243.75 L279.55,243.75 L280.38,243.75 L281.20,243.75 L282.03,243.75 L282.85,243.75 L283.68,243.75 L284.50,243.75 L285.33,243.75 L286.15,243.75 L286.98,243.75 L287.80,243.75 L288.63,243.75 L289.45,243.75 L290.28,243.75 L291.10,243.75 L291.93,243.75 L292.75,243.75 L293.58,243.75 L294.40,243.75 L295.23,243.75 L296.05,243.75 L296.88,243.75 L297.70,243.75 L298.53,243.75 L299.35,243.75 L300.18,243.75 L301.00,243.75 L301.83,243.75 L302.65,243.75 L303.48,243.75 L304.30,243.75 L305.13,243.75 L305.95,243.75 L306.78,243.75 L307.60,243.75 L308.43,243.75 L309.25,243.75 L310.08,243.75 L310.90,243.75 L311.73,243.75 L312.55,243.75 L313.38,243.75 L314.20,243.75 L315.03,243.75 L315.85,243.75 L316.68,243.75 L317.50,243.75 L318.33,243.75 L319.15,243.75 L319.98,243.75 L320.80,243.75 L321.63,243.75 L322.45,243.75 L323.28,243.75 L324.10,243.75 L324.93,243.75 L325.75,243.75 L326.58,243.75 L327.40,243.75 L328.23,243.75 L329.05,243.75 L329.88,243.75 L330.70,243.75 L331.53,243.75 L332.35,243.75 L333.18,243.75 L334.00,243.75 L334.83,243.75 L335.65,243.75 L336.48,243.75 L337.30,243.75 L338.13,243.75 L338.95,243.75 L339.78,243.75 L340.60,243.75 L341.43,243.75 L342.25,243.75 L343.08,243.75 L343.90,243.75 L344.73,243.75 L345.55,243.75 L346.38,243.75 L347.20,243.75 L348.03,243.75 L348.85,243.75 L349.68,243.75 L350.50,243.75 L351.33,243.75 L352.15,243.75 L352.98,243.75 L353.80,243.75 L354.63,243.75 L355.45,243.75 L356.28,243.75 L357.10,243.75 L357.93,243.75 L358.75,243.75 L359.58,243.75 L360.40,243.75 L361.23,243.75 L362.05,243.75 L362.88,243.75 L363.70,243.75 L364.53,243.75 L365.35,243.75 L366.18,243.75 L367.00,243.75 L367.83,243.75 L368.65,243.75 L369.48,243.75 L370.30,243.75 L371.13,243.75 L371.95,243.75 L372.78,243.75 L373.60,243.75 L374.43,243.75 L375.25,243.75 L376.08,243.75 L376.90,243.75 L377.73,243.75 L378.55,243.75 L379.38,243.75 L380.20,243.75 L381.03,243.75 L381.85,243.75 L382.68,243.75 L383.50,243.75 L384.33,243.75 L385.15,243.75 L385.98,243.75 L386.80,243.75 L387.63,243.75 L388.45,243.75 L389.28,243.75 L390.10,243.75 L390.93,243.75 L391.75,243.75 L392.58,243.75 L393.40,243.75 L394.23,243.75 L395.05,243.75 L395.88,243.75 L396.70,243.75 L397.53,243.75 L398.35,243.75 L399.18,243.75 L400.00,243.75" fill="none" stroke="#1a4d8f" stroke-width="2.5" stroke-linejoin="round" stroke-linecap="round"/><text x="685" y="47" text-anchor="middle" fill="#1a1a2e" font-size="15" font-weight="700">频域：sinc 频谱 X(jω)</text><rect x="520" y="65" width="330" height="220" fill="#ffffff" stroke="#d5d2c8" stroke-width="1"/><line x1="547.50" y1="65" x2="547.50" y2="285" stroke="#d5d2c8" stroke-opacity="0.45"/><text x="547.50" y="305" text-anchor="middle" fill="#6b6b7d" font-size="11">-10</text><line x1="616.25" y1="65" x2="616.25" y2="285" stroke="#d5d2c8" stroke-opacity="0.45"/><text x="616.25" y="305" text-anchor="middle" fill="#6b6b7d" font-size="11">-5</text><line x1="685.00" y1="65" x2="685.00" y2="285" stroke="#d5d2c8" stroke-opacity="0.45"/><text x="685.00" y="305" text-anchor="middle" fill="#6b6b7d" font-size="11">0</text><line x1="753.75" y1="65" x2="753.75" y2="285" stroke="#d5d2c8" stroke-opacity="0.45"/><text x="753.75" y="305" text-anchor="middle" fill="#6b6b7d" font-size="11">5</text><line x1="822.50" y1="65" x2="822.50" y2="285" stroke="#d5d2c8" stroke-opacity="0.45"/><text x="822.50" y="305" text-anchor="middle" fill="#6b6b7d" font-size="11">10</text><line x1="520" y1="228.23" x2="850" y2="228.23" stroke="#d5d2c8" stroke-opacity="0.35"/><text x="512" y="232.23" text-anchor="end" fill="#6b6b7d" font-size="11">0</text><line x1="520" y1="157.26" x2="850" y2="157.26" stroke="#d5d2c8" stroke-opacity="0.35"/><text x="512" y="161.26" text-anchor="end" fill="#6b6b7d" font-size="11">1</text><line x1="520" y1="86.29" x2="850" y2="86.29" stroke="#d5d2c8" stroke-opacity="0.35"/><text x="512" y="90.29" text-anchor="end" fill="#6b6b7d" font-size="11">2</text><line x1="520" y1="228.23" x2="850" y2="228.23" stroke="#1a1a2e" stroke-opacity="0.55"/><line x1="685.00" y1="65" x2="685.00" y2="285" stroke="#1a1a2e" stroke-opacity="0.25"/><text x="866" y="287" fill="#6b6b7d" font-size="13" font-style="italic">ω</text><path d="M520.00,228.23 L520.00,234.57 L520.69,235.09 L521.38,235.60 L522.06,236.09 L522.75,236.57 L523.44,237.03 L524.13,237.47 L524.81,237.89 L525.50,238.29 L526.19,238.67 L526.88,239.03 L527.56,239.36 L528.25,239.67 L528.94,239.95 L529.63,240.21 L530.31,240.44 L531.00,240.63 L531.69,240.80 L532.38,240.94 L533.06,241.05 L533.75,241.13 L534.44,241.17 L535.13,241.19 L535.81,241.17 L536.50,241.12 L537.19,241.03 L537.88,240.92 L538.56,240.77 L539.25,240.58 L539.94,240.37 L540.63,240.12 L541.31,239.84 L542.00,239.52 L542.69,239.18 L543.38,238.80 L544.06,238.40 L544.75,237.96 L545.44,237.50 L546.13,237.01 L546.81,236.49 L547.50,235.95 L548.19,235.38 L548.88,234.79 L549.56,234.17 L550.25,233.53 L550.94,232.88 L551.63,232.20 L552.31,231.51 L553.00,230.80 L553.69,230.08 L554.38,229.35 L555.06,228.60 L555.75,227.85 L556.44,227.09 L557.13,226.33 L557.81,225.56 L558.50,224.79 L559.19,224.02 L559.88,223.25 L560.56,222.48 L561.25,221.73 L561.94,220.98 L562.63,220.24 L563.31,219.51 L564.00,218.79 L564.69,218.09 L565.38,217.41 L566.06,216.75 L566.75,216.11 L567.44,215.49 L568.13,214.89 L568.81,214.32 L569.50,213.79 L570.19,213.28 L570.88,212.80 L571.56,212.35 L572.25,211.94 L572.94,211.57 L573.63,211.23 L574.31,210.93 L575.00,210.67 L575.69,210.45 L576.38,210.28 L577.06,210.14 L577.75,210.06 L578.44,210.01 L579.13,210.01 L579.81,210.06 L580.50,210.15 L581.19,210.29 L581.88,210.47 L582.56,210.71 L583.25,210.99 L583.94,211.32 L584.63,211.69 L585.31,212.11 L586.00,212.58 L586.69,213.09 L587.38,213.65 L588.06,214.26 L588.75,214.90 L589.44,215.59 L590.13,216.33 L590.81,217.10 L591.50,217.91 L592.19,218.76 L592.88,219.65 L593.56,220.57 L594.25,221.53 L594.94,222.51 L595.63,223.53 L596.31,224.57 L597.00,225.64 L597.69,226.73 L598.38,227.85 L599.06,228.98 L599.75,230.13 L600.44,231.29 L601.13,232.46 L601.81,233.65 L602.50,234.84 L603.19,236.03 L603.88,237.22 L604.56,238.41 L605.25,239.60 L605.94,240.77 L606.63,241.94 L607.31,243.09 L608.00,244.23 L608.69,245.34 L609.38,246.43 L610.06,247.50 L610.75,248.54 L611.44,249.54 L612.13,250.51 L612.81,251.45 L613.50,252.34 L614.19,253.19 L614.88,253.99 L615.56,254.75 L616.25,255.45 L616.94,256.09 L617.63,256.68 L618.31,257.21 L619.00,257.68 L619.69,258.09 L620.38,258.42 L621.06,258.69 L621.75,258.89 L622.44,259.01 L623.13,259.06 L623.81,259.03 L624.50,258.92 L625.19,258.74 L625.88,258.47 L626.56,258.12 L627.25,257.68 L627.94,257.16 L628.63,256.55 L629.31,255.86 L630.00,255.08 L630.69,254.21 L631.38,253.26 L632.06,252.21 L632.75,251.08 L633.44,249.86 L634.13,248.55 L634.81,247.16 L635.50,245.67 L636.19,244.10 L636.88,242.45 L637.56,240.71 L638.25,238.89 L638.94,236.99 L639.63,235.01 L640.31,232.95 L641.00,230.81 L641.69,228.60 L642.38,226.32 L643.06,223.97 L643.75,221.55 L644.44,219.06 L645.13,216.52 L645.81,213.91 L646.50,211.24 L647.19,208.53 L647.88,205.76 L648.56,202.94 L649.25,200.08 L649.94,197.18 L650.63,194.25 L651.31,191.28 L652.00,188.28 L652.69,185.25 L653.38,182.21 L654.06,179.14 L654.75,176.06 L655.44,172.98 L656.13,169.88 L656.81,166.79 L657.50,163.70 L658.19,160.61 L658.88,157.53 L659.56,154.47 L660.25,151.43 L660.94,148.42 L661.63,145.43 L662.31,142.47 L663.00,139.55 L663.69,136.67 L664.38,133.84 L665.06,131.05 L665.75,128.32 L666.44,125.64 L667.13,123.02 L667.81,120.47 L668.50,117.98 L669.19,115.57 L669.88,113.23 L670.56,110.97 L671.25,108.79 L671.94,106.70 L672.63,104.69 L673.31,102.77 L674.00,100.95 L674.69,99.23 L675.38,97.60 L676.06,96.08 L676.75,94.65 L677.44,93.34 L678.13,92.13 L678.81,91.03 L679.50,90.05 L680.19,89.17 L680.88,88.41 L681.56,87.76 L682.25,87.23 L682.94,86.82 L683.63,86.53 L684.31,86.35 L685.00,86.29 L685.69,86.35 L686.38,86.53 L687.06,86.82 L687.75,87.23 L688.44,87.76 L689.13,88.41 L689.81,89.17 L690.50,90.05 L691.19,91.03 L691.88,92.13 L692.56,93.34 L693.25,94.65 L693.94,96.08 L694.63,97.60 L695.31,99.23 L696.00,100.95 L696.69,102.77 L697.38,104.69 L698.06,106.70 L698.75,108.79 L699.44,110.97 L700.13,113.23 L700.81,115.57 L701.50,117.98 L702.19,120.47 L702.88,123.02 L703.56,125.64 L704.25,128.32 L704.94,131.05 L705.63,133.84 L706.31,136.67 L707.00,139.55 L707.69,142.47 L708.38,145.43 L709.06,148.42 L709.75,151.43 L710.44,154.47 L711.13,157.53 L711.81,160.61 L712.50,163.70 L713.19,166.79 L713.88,169.88 L714.56,172.98 L715.25,176.06 L715.94,179.14 L716.63,182.21 L717.31,185.25 L718.00,188.28 L718.69,191.28 L719.38,194.25 L720.06,197.18 L720.75,200.08 L721.44,202.94 L722.13,205.76 L722.81,208.53 L723.50,211.24 L724.19,213.91 L724.88,216.52 L725.56,219.06 L726.25,221.55 L726.94,223.97 L727.63,226.32 L728.31,228.60 L729.00,230.81 L729.69,232.95 L730.38,235.01 L731.06,236.99 L731.75,238.89 L732.44,240.71 L733.13,242.45 L733.81,244.10 L734.50,245.67 L735.19,247.16 L735.88,248.55 L736.56,249.86 L737.25,251.08 L737.94,252.21 L738.63,253.26 L739.31,254.21 L740.00,255.08 L740.69,255.86 L741.38,256.55 L742.06,257.16 L742.75,257.68 L743.44,258.12 L744.13,258.47 L744.81,258.74 L745.50,258.92 L746.19,259.03 L746.88,259.06 L747.56,259.01 L748.25,258.89 L748.94,258.69 L749.63,258.42 L750.31,258.09 L751.00,257.68 L751.69,257.21 L752.38,256.68 L753.06,256.09 L753.75,255.45 L754.44,254.75 L755.13,253.99 L755.81,253.19 L756.50,252.34 L757.19,251.45 L757.88,250.51 L758.56,249.54 L759.25,248.54 L759.94,247.50 L760.63,246.43 L761.31,245.34 L762.00,244.23 L762.69,243.09 L763.38,241.94 L764.06,240.77 L764.75,239.60 L765.44,238.41 L766.13,237.22 L766.81,236.03 L767.50,234.84 L768.19,233.65 L768.88,232.46 L769.56,231.29 L770.25,230.13 L770.94,228.98 L771.63,227.85 L772.31,226.73 L773.00,225.64 L773.69,224.57 L774.38,223.53 L775.06,222.51 L775.75,221.53 L776.44,220.57 L777.13,219.65 L777.81,218.76 L778.50,217.91 L779.19,217.10 L779.88,216.33 L780.56,215.59 L781.25,214.90 L781.94,214.26 L782.63,213.65 L783.31,213.09 L784.00,212.58 L784.69,212.11 L785.38,211.69 L786.06,211.32 L786.75,210.99 L787.44,210.71 L788.13,210.47 L788.81,210.29 L789.50,210.15 L790.19,210.06 L790.88,210.01 L791.56,210.01 L792.25,210.06 L792.94,210.14 L793.63,210.28 L794.31,210.45 L795.00,210.67 L795.69,210.93 L796.38,211.23 L797.06,211.57 L797.75,211.94 L798.44,212.35 L799.13,212.80 L799.81,213.28 L800.50,213.79 L801.19,214.32 L801.88,214.89 L802.56,215.49 L803.25,216.11 L803.94,216.75 L804.63,217.41 L805.31,218.09 L806.00,218.79 L806.69,219.51 L807.38,220.24 L808.06,220.98 L808.75,221.73 L809.44,222.48 L810.13,223.25 L810.81,224.02 L811.50,224.79 L812.19,225.56 L812.88,226.33 L813.56,227.09 L814.25,227.85 L814.94,228.60 L815.63,229.35 L816.31,230.08 L817.00,230.80 L817.69,231.51 L818.38,232.20 L819.06,232.88 L819.75,233.53 L820.44,234.17 L821.13,234.79 L821.81,235.38 L822.50,235.95 L823.19,236.49 L823.88,237.01 L824.56,237.50 L825.25,237.96 L825.94,238.40 L826.63,238.80 L827.31,239.18 L828.00,239.52 L828.69,239.84 L829.38,240.12 L830.06,240.37 L830.75,240.58 L831.44,240.77 L832.13,240.92 L832.81,241.03 L833.50,241.12 L834.19,241.17 L834.88,241.19 L835.56,241.17 L836.25,241.13 L836.94,241.05 L837.63,240.94 L838.31,240.80 L839.00,240.63 L839.69,240.44 L840.38,240.21 L841.06,239.95 L841.75,239.67 L842.44,239.36 L843.13,239.03 L843.81,238.67 L844.50,238.29 L845.19,237.89 L845.88,237.47 L846.56,237.03 L847.25,236.57 L847.94,236.09 L848.63,235.60 L849.31,235.09 L850.00,234.57 L850.00,228.23 Z" fill="#b8451a" fill-opacity="0.1"/><path d="M520.00,234.57 L520.69,235.09 L521.38,235.60 L522.06,236.09 L522.75,236.57 L523.44,237.03 L524.13,237.47 L524.81,237.89 L525.50,238.29 L526.19,238.67 L526.88,239.03 L527.56,239.36 L528.25,239.67 L528.94,239.95 L529.63,240.21 L530.31,240.44 L531.00,240.63 L531.69,240.80 L532.38,240.94 L533.06,241.05 L533.75,241.13 L534.44,241.17 L535.13,241.19 L535.81,241.17 L536.50,241.12 L537.19,241.03 L537.88,240.92 L538.56,240.77 L539.25,240.58 L539.94,240.37 L540.63,240.12 L541.31,239.84 L542.00,239.52 L542.69,239.18 L543.38,238.80 L544.06,238.40 L544.75,237.96 L545.44,237.50 L546.13,237.01 L546.81,236.49 L547.50,235.95 L548.19,235.38 L548.88,234.79 L549.56,234.17 L550.25,233.53 L550.94,232.88 L551.63,232.20 L552.31,231.51 L553.00,230.80 L553.69,230.08 L554.38,229.35 L555.06,228.60 L555.75,227.85 L556.44,227.09 L557.13,226.33 L557.81,225.56 L558.50,224.79 L559.19,224.02 L559.88,223.25 L560.56,222.48 L561.25,221.73 L561.94,220.98 L562.63,220.24 L563.31,219.51 L564.00,218.79 L564.69,218.09 L565.38,217.41 L566.06,216.75 L566.75,216.11 L567.44,215.49 L568.13,214.89 L568.81,214.32 L569.50,213.79 L570.19,213.28 L570.88,212.80 L571.56,212.35 L572.25,211.94 L572.94,211.57 L573.63,211.23 L574.31,210.93 L575.00,210.67 L575.69,210.45 L576.38,210.28 L577.06,210.14 L577.75,210.06 L578.44,210.01 L579.13,210.01 L579.81,210.06 L580.50,210.15 L581.19,210.29 L581.88,210.47 L582.56,210.71 L583.25,210.99 L583.94,211.32 L584.63,211.69 L585.31,212.11 L586.00,212.58 L586.69,213.09 L587.38,213.65 L588.06,214.26 L588.75,214.90 L589.44,215.59 L590.13,216.33 L590.81,217.10 L591.50,217.91 L592.19,218.76 L592.88,219.65 L593.56,220.57 L594.25,221.53 L594.94,222.51 L595.63,223.53 L596.31,224.57 L597.00,225.64 L597.69,226.73 L598.38,227.85 L599.06,228.98 L599.75,230.13 L600.44,231.29 L601.13,232.46 L601.81,233.65 L602.50,234.84 L603.19,236.03 L603.88,237.22 L604.56,238.41 L605.25,239.60 L605.94,240.77 L606.63,241.94 L607.31,243.09 L608.00,244.23 L608.69,245.34 L609.38,246.43 L610.06,247.50 L610.75,248.54 L611.44,249.54 L612.13,250.51 L612.81,251.45 L613.50,252.34 L614.19,253.19 L614.88,253.99 L615.56,254.75 L616.25,255.45 L616.94,256.09 L617.63,256.68 L618.31,257.21 L619.00,257.68 L619.69,258.09 L620.38,258.42 L621.06,258.69 L621.75,258.89 L622.44,259.01 L623.13,259.06 L623.81,259.03 L624.50,258.92 L625.19,258.74 L625.88,258.47 L626.56,258.12 L627.25,257.68 L627.94,257.16 L628.63,256.55 L629.31,255.86 L630.00,255.08 L630.69,254.21 L631.38,253.26 L632.06,252.21 L632.75,251.08 L633.44,249.86 L634.13,248.55 L634.81,247.16 L635.50,245.67 L636.19,244.10 L636.88,242.45 L637.56,240.71 L638.25,238.89 L638.94,236.99 L639.63,235.01 L640.31,232.95 L641.00,230.81 L641.69,228.60 L642.38,226.32 L643.06,223.97 L643.75,221.55 L644.44,219.06 L645.13,216.52 L645.81,213.91 L646.50,211.24 L647.19,208.53 L647.88,205.76 L648.56,202.94 L649.25,200.08 L649.94,197.18 L650.63,194.25 L651.31,191.28 L652.00,188.28 L652.69,185.25 L653.38,182.21 L654.06,179.14 L654.75,176.06 L655.44,172.98 L656.13,169.88 L656.81,166.79 L657.50,163.70 L658.19,160.61 L658.88,157.53 L659.56,154.47 L660.25,151.43 L660.94,148.42 L661.63,145.43 L662.31,142.47 L663.00,139.55 L663.69,136.67 L664.38,133.84 L665.06,131.05 L665.75,128.32 L666.44,125.64 L667.13,123.02 L667.81,120.47 L668.50,117.98 L669.19,115.57 L669.88,113.23 L670.56,110.97 L671.25,108.79 L671.94,106.70 L672.63,104.69 L673.31,102.77 L674.00,100.95 L674.69,99.23 L675.38,97.60 L676.06,96.08 L676.75,94.65 L677.44,93.34 L678.13,92.13 L678.81,91.03 L679.50,90.05 L680.19,89.17 L680.88,88.41 L681.56,87.76 L682.25,87.23 L682.94,86.82 L683.63,86.53 L684.31,86.35 L685.00,86.29 L685.69,86.35 L686.38,86.53 L687.06,86.82 L687.75,87.23 L688.44,87.76 L689.13,88.41 L689.81,89.17 L690.50,90.05 L691.19,91.03 L691.88,92.13 L692.56,93.34 L693.25,94.65 L693.94,96.08 L694.63,97.60 L695.31,99.23 L696.00,100.95 L696.69,102.77 L697.38,104.69 L698.06,106.70 L698.75,108.79 L699.44,110.97 L700.13,113.23 L700.81,115.57 L701.50,117.98 L702.19,120.47 L702.88,123.02 L703.56,125.64 L704.25,128.32 L704.94,131.05 L705.63,133.84 L706.31,136.67 L707.00,139.55 L707.69,142.47 L708.38,145.43 L709.06,148.42 L709.75,151.43 L710.44,154.47 L711.13,157.53 L711.81,160.61 L712.50,163.70 L713.19,166.79 L713.88,169.88 L714.56,172.98 L715.25,176.06 L715.94,179.14 L716.63,182.21 L717.31,185.25 L718.00,188.28 L718.69,191.28 L719.38,194.25 L720.06,197.18 L720.75,200.08 L721.44,202.94 L722.13,205.76 L722.81,208.53 L723.50,211.24 L724.19,213.91 L724.88,216.52 L725.56,219.06 L726.25,221.55 L726.94,223.97 L727.63,226.32 L728.31,228.60 L729.00,230.81 L729.69,232.95 L730.38,235.01 L731.06,236.99 L731.75,238.89 L732.44,240.71 L733.13,242.45 L733.81,244.10 L734.50,245.67 L735.19,247.16 L735.88,248.55 L736.56,249.86 L737.25,251.08 L737.94,252.21 L738.63,253.26 L739.31,254.21 L740.00,255.08 L740.69,255.86 L741.38,256.55 L742.06,257.16 L742.75,257.68 L743.44,258.12 L744.13,258.47 L744.81,258.74 L745.50,258.92 L746.19,259.03 L746.88,259.06 L747.56,259.01 L748.25,258.89 L748.94,258.69 L749.63,258.42 L750.31,258.09 L751.00,257.68 L751.69,257.21 L752.38,256.68 L753.06,256.09 L753.75,255.45 L754.44,254.75 L755.13,253.99 L755.81,253.19 L756.50,252.34 L757.19,251.45 L757.88,250.51 L758.56,249.54 L759.25,248.54 L759.94,247.50 L760.63,246.43 L761.31,245.34 L762.00,244.23 L762.69,243.09 L763.38,241.94 L764.06,240.77 L764.75,239.60 L765.44,238.41 L766.13,237.22 L766.81,236.03 L767.50,234.84 L768.19,233.65 L768.88,232.46 L769.56,231.29 L770.25,230.13 L770.94,228.98 L771.63,227.85 L772.31,226.73 L773.00,225.64 L773.69,224.57 L774.38,223.53 L775.06,222.51 L775.75,221.53 L776.44,220.57 L777.13,219.65 L777.81,218.76 L778.50,217.91 L779.19,217.10 L779.88,216.33 L780.56,215.59 L781.25,214.90 L781.94,214.26 L782.63,213.65 L783.31,213.09 L784.00,212.58 L784.69,212.11 L785.38,211.69 L786.06,211.32 L786.75,210.99 L787.44,210.71 L788.13,210.47 L788.81,210.29 L789.50,210.15 L790.19,210.06 L790.88,210.01 L791.56,210.01 L792.25,210.06 L792.94,210.14 L793.63,210.28 L794.31,210.45 L795.00,210.67 L795.69,210.93 L796.38,211.23 L797.06,211.57 L797.75,211.94 L798.44,212.35 L799.13,212.80 L799.81,213.28 L800.50,213.79 L801.19,214.32 L801.88,214.89 L802.56,215.49 L803.25,216.11 L803.94,216.75 L804.63,217.41 L805.31,218.09 L806.00,218.79 L806.69,219.51 L807.38,220.24 L808.06,220.98 L808.75,221.73 L809.44,222.48 L810.13,223.25 L810.81,224.02 L811.50,224.79 L812.19,225.56 L812.88,226.33 L813.56,227.09 L814.25,227.85 L814.94,228.60 L815.63,229.35 L816.31,230.08 L817.00,230.80 L817.69,231.51 L818.38,232.20 L819.06,232.88 L819.75,233.53 L820.44,234.17 L821.13,234.79 L821.81,235.38 L822.50,235.95 L823.19,236.49 L823.88,237.01 L824.56,237.50 L825.25,237.96 L825.94,238.40 L826.63,238.80 L827.31,239.18 L828.00,239.52 L828.69,239.84 L829.38,240.12 L830.06,240.37 L830.75,240.58 L831.44,240.77 L832.13,240.92 L832.81,241.03 L833.50,241.12 L834.19,241.17 L834.88,241.19 L835.56,241.17 L836.25,241.13 L836.94,241.05 L837.63,240.94 L838.31,240.80 L839.00,240.63 L839.69,240.44 L840.38,240.21 L841.06,239.95 L841.75,239.67 L842.44,239.36 L843.13,239.03 L843.81,238.67 L844.50,238.29 L845.19,237.89 L845.88,237.47 L846.56,237.03 L847.25,236.57 L847.94,236.09 L848.63,235.60 L849.31,235.09 L850.00,234.57" fill="none" stroke="#b8451a" stroke-width="2.5" stroke-linejoin="round" stroke-linecap="round"/>
</svg>
