<?xml version="1.0" encoding="UTF-8"?>
<svg xmlns="http://www.w3.org/2000/svg" viewBox="0 0 920 460" width="920" height="460" role="img">
<style>text{font-family:InstrumentSans, -apple-system, BlinkMacSystemFont, 'PingFang SC', 'Microsoft YaHei', sans-serif}</style>
<rect width="920" height="460" rx="8" fill="#fbfaf6"/>
<text x="465" y="47" text-anchor="middle" fill="#1a1a2e" font-size="15" font-weight="700">无混叠（ωs = 8 &gt; 2ωM = 4）：频谱不重叠</text><rect x="85" y="65" width="760" height="130" fill="#ffffff" stroke="#d5d2c8" stroke-width="1"/><line x1="227.50" y1="65" x2="227.50" y2="195" stroke="#d5d2c8" stroke-opacity="0.45"/><text x="227.50" y="215" text-anchor="middle" fill="#6b6b7d" font-size="11">-10</text><line x1="465.00" y1="65" x2="465.00" y2="195" stroke="#d5d2c8" stroke-opacity="0.45"/><text x="465.00" y="215" text-anchor="middle" fill="#6b6b7d" font-size="11">0</text><line x1="702.50" y1="65" x2="702.50" y2="195" stroke="#d5d2c8" stroke-opacity="0.45"/><text x="702.50" y="215" text-anchor="middle" fill="#6b6b7d" font-size="11">10</text><line x1="940.00" y1="65" x2="940.00" y2="195" stroke="#d5d2c8" stroke-opacity="0.45"/><text x="940.00" y="215" text-anchor="middle" fill="#6b6b7d" font-size="11">20</text><line x1="85" y1="178.75" x2="845" y2="178.75" stroke="#d5d2c8" stroke-opacity="0.35"/><text x="77" y="182.75" text-anchor="end" fill="#6b6b7d" font-size="11">0</text><line x1="85" y1="146.25" x2="845" y2="146.25" stroke="#d5d2c8" stroke-opacity="0.35"/><text x="77" y="150.25" text-anchor="end" fill="#6b6b7d" font-size="11">0.2</text><line x1="85" y1="113.75" x2="845" y2="113.75" stroke="#d5d2c8" stroke-opacity="0.35"/><text x="77" y="117.75" text-anchor="end" fill="#6b6b7d" font-size="11">0.4</text><line x1="85" y1="81.25" x2="845" y2="81.25" stroke="#d5d2c8" stroke-opacity="0.35"/><text x="77" y="85.25" text-anchor="end" fill="#6b6b7d" font-size="11">0.6</text><line x1="85" y1="178.75" x2="845" y2="178.75" stroke="#1a1a2e" stroke-opacity="0.55"/><line x1="465.00" y1="65" x2="465.00" y2="195" stroke="#1a1a2e" stroke-opacity="0.25"/><text x="861" y="197" fill="#6b6b7d" font-size="13" font-style="italic">ω</text><path d="M85.00,178.75 L85.00,97.50 L86.19,99.53 L87.38,101.56 L88.56,103.59 L89.75,105.63 L90.94,107.66 L92.13,109.69 L93.31,111.72 L94.50,113.75 L95.69,115.78 L96.88,117.81 L98.06,119.84 L99.25,121.88 L100.44,123.91 L101.63,125.94 L102.81,127.97 L104.00,130.00 L105.19,132.03 L106.38,134.06 L107.56,136.09 L108.75,138.13 L109.94,140.16 L111.13,142.19 L112.31,144.22 L113.50,146.25 L114.69,148.28 L115.88,150.31 L117.06,152.34 L118.25,154.38 L119.44,156.41 L120.63,158.44 L121.81,160.47 L123.00,162.50 L124.19,164.53 L125.38,166.56 L126.56,168.59 L127.75,170.63 L128.94,172.66 L130.13,174.69 L131.31,176.72 L132.50,178.75 L133.69,178.75 L134.88,178.75 L136.06,178.75 L137.25,178.75 L138.44,178.75 L139.63,178.75 L140.81,178.75 L142.00,178.75 L143.19,178.75 L144.38,178.75 L145.56,178.75 L146.75,178.75 L147.94,178.75 L149.13,178.75 L150.31,178.75 L151.50,178.75 L152.69,178.75 L153.88,178.75 L155.06,178.75 L156.25,178.75 L157.44,178.75 L158.63,178.75 L159.81,178.75 L161.00,178.75 L162.19,178.75 L163.38,178.75 L164.56,178.75 L165.75,178.75 L166.94,178.75 L168.13,178.75 L169.31,178.75 L170.50,178.75 L171.69,178.75 L172.88,178.75 L174.06,178.75 L175.25,178.75 L176.44,178.75 L177.63,178.75 L178.81,178.75 L180.00,178.75 L181.19,178.75 L182.38,178.75 L183.56,178.75 L184.75,178.75 L185.94,178.75 L187.13,178.75 L188.31,178.75 L189.50,178.75 L190.69,178.75 L191.88,178.75 L193.06,178.75 L194.25,178.75 L195.44,178.75 L196.63,178.75 L197.81,178.75 L199.00,178.75 L200.19,178.75 L201.38,178.75 L202.56,178.75 L203.75,178.75 L204.94,178.75 L206.13,178.75 L207.31,178.75 L208.50,178.75 L209.69,178.75 L210.88,178.75 L212.06,178.75 L213.25,178.75 L214.44,178.75 L215.63,178.75 L216.81,178.75 L218.00,178.75 L219.19,178.75 L220.38,178.75 L221.56,178.75 L222.75,178.75 L223.94,178.75 L225.13,178.75 L226.31,178.75 L227.50,178.75 L228.69,176.72 L229.88,174.69 L231.06,172.66 L232.25,170.62 L233.44,168.59 L234.63,166.56 L235.81,164.53 L237.00,162.50 L238.19,160.47 L239.38,158.44 L240.56,156.41 L241.75,154.37 L242.94,152.34 L244.13,150.31 L245.31,148.28 L246.50,146.25 L247.69,144.22 L248.88,142.19 L250.06,140.16 L251.25,138.12 L252.44,136.09 L253.63,134.06 L254.81,132.03 L256.00,130.00 L257.19,127.97 L258.38,125.94 L259.56,123.91 L260.75,121.87 L261.94,119.84 L263.13,117.81 L264.31,115.78 L265.50,113.75 L266.69,111.72 L267.88,109.69 L269.06,107.66 L270.25,105.62 L271.44,103.59 L272.63,101.56 L273.81,99.53 L275.00,97.50 L276.19,99.53 L277.38,101.56 L278.56,103.59 L279.75,105.63 L280.94,107.66 L282.13,109.69 L283.31,111.72 L284.50,113.75 L285.69,115.78 L286.88,117.81 L288.06,119.84 L289.25,121.88 L290.44,123.91 L291.63,125.94 L292.81,127.97 L294.00,130.00 L295.19,132.03 L296.38,134.06 L297.56,136.09 L298.75,138.13 L299.94,140.16 L301.13,142.19 L302.31,144.22 L303.50,146.25 L304.69,148.28 L305.88,150.31 L307.06,152.34 L308.25,154.38 L309.44,156.41 L310.63,158.44 L311.81,160.47 L313.00,162.50 L314.19,164.53 L315.38,166.56 L316.56,168.59 L317.75,170.63 L318.94,172.66 L320.13,174.69 L321.31,176.72 L322.50,178.75 L323.69,178.75 L324.88,178.75 L326.06,178.75 L327.25,178.75 L328.44,178.75 L329.63,178.75 L330.81,178.75 L332.00,178.75 L333.19,178.75 L334.38,178.75 L335.56,178.75 L336.75,178.75 L337.94,178.75 L339.13,178.75 L340.31,178.75 L341.50,178.75 L342.69,178.75 L343.88,178.75 L345.06,178.75 L346.25,178.75 L347.44,178.75 L348.63,178.75 L349.81,178.75 L351.00,178.75 L352.19,178.75 L353.38,178.75 L354.56,178.75 L355.75,178.75 L356.94,178.75 L358.13,178.75 L359.31,178.75 L360.50,178.75 L361.69,178.75 L362.88,178.75 L364.06,178.75 L365.25,178.75 L366.44,178.75 L367.63,178.75 L368.81,178.75 L370.00,178.75 L371.19,178.75 L372.38,178.75 L373.56,178.75 L374.75,178.75 L375.94,178.75 L377.13,178.75 L378.31,178.75 L379.50,178.75 L380.69,178.75 L381.88,178.75 L383.06,178.75 L384.25,178.75 L385.44,178.75 L386.63,178.75 L387.81,178.75 L389.00,178.75 L390.19,178.75 L391.38,178.75 L392.56,178.75 L393.75,178.75 L394.94,178.75 L396.13,178.75 L397.31,178.75 L398.50,178.75 L399.69,178.75 L400.88,178.75 L402.06,178.75 L403.25,178.75 L404.44,178.75 L405.63,178.75 L406.81,178.75 L408.00,178.75 L409.19,178.75 L410.38,178.75 L411.56,178.75 L412.75,178.75 L413.94,178.75 L415.13,178.75 L416.31,178.75 L417.50,178.75 L418.69,176.72 L419.88,174.69 L421.06,172.66 L422.25,170.62 L423.44,168.59 L424.63,166.56 L425.81,164.53 L427.00,162.50 L428.19,160.47 L429.38,158.44 L430.56,156.41 L431.75,154.37 L432.94,152.34 L434.13,150.31 L435.31,148.28 L436.50,146.25 L437.69,144.22 L438.88,142.19 L440.06,140.16 L441.25,138.12 L442.44,136.09 L443.63,134.06 L444.81,132.03 L446.00,130.00 L447.19,127.97 L448.38,125.94 L449.56,123.91 L450.75,121.87 L451.94,119.84 L453.13,117.81 L454.31,115.78 L455.50,113.75 L456.69,111.72 L457.88,109.69 L459.06,107.66 L460.25,105.62 L461.44,103.59 L462.63,101.56 L463.81,99.53 L465.00,97.50 L466.19,99.53 L467.38,101.56 L468.56,103.59 L469.75,105.63 L470.94,107.66 L472.13,109.69 L473.31,111.72 L474.50,113.75 L475.69,115.78 L476.88,117.81 L478.06,119.84 L479.25,121.88 L480.44,123.91 L481.63,125.94 L482.81,127.97 L484.00,130.00 L485.19,132.03 L486.38,134.06 L487.56,136.09 L488.75,138.13 L489.94,140.16 L491.13,142.19 L492.31,144.22 L493.50,146.25 L494.69,148.28 L495.88,150.31 L497.06,152.34 L498.25,154.38 L499.44,156.41 L500.63,158.44 L501.81,160.47 L503.00,162.50 L504.19,164.53 L505.38,166.56 L506.56,168.59 L507.75,170.63 L508.94,172.66 L510.13,174.69 L511.31,176.72 L512.50,178.75 L513.69,178.75 L514.88,178.75 L516.06,178.75 L517.25,178.75 L518.44,178.75 L519.63,178.75 L520.81,178.75 L522.00,178.75 L523.19,178.75 L524.38,178.75 L525.56,178.75 L526.75,178.75 L527.94,178.75 L529.13,178.75 L530.31,178.75 L531.50,178.75 L532.69,178.75 L533.88,178.75 L535.06,178.75 L536.25,178.75 L537.44,178.75 L538.63,178.75 L539.81,178.75 L541.00,178.75 L542.19,178.75 L543.38,178.75 L544.56,178.75 L545.75,178.75 L546.94,178.75 L548.13,178.75 L549.31,178.75 L550.50,178.75 L551.69,178.75 L552.88,178.75 L554.06,178.75 L555.25,178.75 L556.44,178.75 L557.63,178.75 L558.81,178.75 L560.00,178.75 L561.19,178.75 L562.38,178.75 L563.56,178.75 L564.75,178.75 L565.94,178.75 L567.13,178.75 L568.31,178.75 L569.50,178.75 L570.69,178.75 L571.88,178.75 L573.06,178.75 L574.25,178.75 L575.44,178.75 L576.63,178.75 L577.81,178.75 L579.00,178.75 L580.19,178.75 L581.38,178.75 L582.56,178.75 L583.75,178.75 L584.94,178.75 L586.13,178.75 L587.31,178.75 L588.50,178.75 L589.69,178.75 L590.88,178.75 L592.06,178.75 L593.25,178.75 L594.44,178.75 L595.63,178.75 L596.81,178.75 L598.00,178.75 L599.19,178.75 L600.38,178.75 L601.56,178.75 L602.75,178.75 L603.94,178.75 L605.13,178.75 L606.31,178.75 L607.50,178.75 L608.69,176.72 L609.88,174.69 L611.06,172.66 L612.25,170.62 L613.44,168.59 L614.63,166.56 L615.81,164.53 L617.00,162.50 L618.19,160.47 L619.38,158.44 L620.56,156.41 L621.75,154.37 L622.94,152.34 L624.13,150.31 L625.31,148.28 L626.50,146.25 L627.69,144.22 L628.88,142.19 L630.06,140.16 L631.25,138.12 L632.44,136.09 L633.63,134.06 L634.81,132.03 L636.00,130.00 L637.19,127.97 L638.38,125.94 L639.56,123.91 L640.75,121.87 L641.94,119.84 L643.13,117.81 L644.31,115.78 L645.50,113.75 L646.69,111.72 L647.88,109.69 L649.06,107.66 L650.25,105.62 L651.44,103.59 L652.63,101.56 L653.81,99.53 L655.00,97.50 L656.19,99.53 L657.38,101.56 L658.56,103.59 L659.75,105.63 L660.94,107.66 L662.13,109.69 L663.31,111.72 L664.50,113.75 L665.69,115.78 L666.88,117.81 L668.06,119.84 L669.25,121.88 L670.44,123.91 L671.63,125.94 L672.81,127.97 L674.00,130.00 L675.19,132.03 L676.38,134.06 L677.56,136.09 L678.75,138.13 L679.94,140.16 L681.13,142.19 L682.31,144.22 L683.50,146.25 L684.69,148.28 L685.88,150.31 L687.06,152.34 L688.25,154.38 L689.44,156.41 L690.63,158.44 L691.81,160.47 L693.00,162.50 L694.19,164.53 L695.38,166.56 L696.56,168.59 L697.75,170.63 L698.94,172.66 L700.13,174.69 L701.31,176.72 L702.50,178.75 L703.69,178.75 L704.88,178.75 L706.06,178.75 L707.25,178.75 L708.44,178.75 L709.63,178.75 L710.81,178.75 L712.00,178.75 L713.19,178.75 L714.38,178.75 L715.56,178.75 L716.75,178.75 L717.94,178.75 L719.13,178.75 L720.31,178.75 L721.50,178.75 L722.69,178.75 L723.88,178.75 L725.06,178.75 L726.25,178.75 L727.44,178.75 L728.63,178.75 L729.81,178.75 L731.00,178.75 L732.19,178.75 L733.38,178.75 L734.56,178.75 L735.75,178.75 L736.94,178.75 L738.13,178.75 L739.31,178.75 L740.50,178.75 L741.69,178.75 L742.88,178.75 L744.06,178.75 L745.25,178.75 L746.44,178.75 L747.63,178.75 L748.81,178.75 L750.00,178.75 L751.19,178.75 L752.38,178.75 L753.56,178.75 L754.75,178.75 L755.94,178.75 L757.13,178.75 L758.31,178.75 L759.50,178.75 L760.69,178.75 L761.88,178.75 L763.06,178.75 L764.25,178.75 L765.44,178.75 L766.63,178.75 L767.81,178.75 L769.00,178.75 L770.19,178.75 L771.38,178.75 L772.56,178.75 L773.75,178.75 L774.94,178.75 L776.13,178.75 L777.31,178.75 L778.50,178.75 L779.69,178.75 L780.88,178.75 L782.06,178.75 L783.25,178.75 L784.44,178.75 L785.63,178.75 L786.81,178.75 L788.00,178.75 L789.19,178.75 L790.38,178.75 L791.56,178.75 L792.75,178.75 L793.94,178.75 L795.13,178.75 L796.31,178.75 L797.50,178.75 L798.69,176.72 L799.88,174.69 L801.06,172.66 L802.25,170.62 L803.44,168.59 L804.63,166.56 L805.81,164.53 L807.00,162.50 L808.19,160.47 L809.38,158.44 L810.56,156.41 L811.75,154.37 L812.94,152.34 L814.13,150.31 L815.31,148.28 L816.50,146.25 L817.69,144.22 L818.88,142.19 L820.06,140.16 L821.25,138.12 L822.44,136.09 L823.63,134.06 L824.81,132.03 L826.00,130.00 L827.19,127.97 L828.38,125.94 L829.56,123.91 L830.75,121.87 L831.94,119.84 L833.13,117.81 L834.31,115.78 L835.50,113.75 L836.69,111.72 L837.88,109.69 L839.06,107.66 L840.25,105.62 L841.44,103.59 L842.63,101.56 L843.81,99.53 L845.00,97.50 L845.00,178.75 Z" fill="#1a4d8f" fill-opacity="0.12"/><path d="M85.00,97.50 L86.19,99.53 L87.38,101.56 L88.56,103.59 L89.75,105.63 L90.94,107.66 L92.13,109.69 L93.31,111.72 L94.50,113.75 L95.69,115.78 L96.88,117.81 L98.06,119.84 L99.25,121.88 L100.44,123.91 L101.63,125.94 L102.81,127.97 L104.00,130.00 L105.19,132.03 L106.38,134.06 L107.56,136.09 L108.75,138.13 L109.94,140.16 L111.13,142.19 L112.31,144.22 L113.50,146.25 L114.69,148.28 L115.88,150.31 L117.06,152.34 L118.25,154.38 L119.44,156.41 L120.63,158.44 L121.81,160.47 L123.00,162.50 L124.19,164.53 L125.38,166.56 L126.56,168.59 L127.75,170.63 L128.94,172.66 L130.13,174.69 L131.31,176.72 L132.50,178.75 L133.69,178.75 L134.88,178.75 L136.06,178.75 L137.25,178.75 L138.44,178.75 L139.63,178.75 L140.81,178.75 L142.00,178.75 L143.19,178.75 L144.38,178.75 L145.56,178.75 L146.75,178.75 L147.94,178.75 L149.13,178.75 L150.31,178.75 L151.50,178.75 L152.69,178.75 L153.88,178.75 L155.06,178.75 L156.25,178.75 L157.44,178.75 L158.63,178.75 L159.81,178.75 L161.00,178.75 L162.19,178.75 L163.38,178.75 L164.56,178.75 L165.75,178.75 L166.94,178.75 L168.13,178.75 L169.31,178.75 L170.50,178.75 L171.69,178.75 L172.88,178.75 L174.06,178.75 L175.25,178.75 L176.44,178.75 L177.63,178.75 L178.81,178.75 L180.00,178.75 L181.19,178.75 L182.38,178.75 L183.56,178.75 L184.75,178.75 L185.94,178.75 L187.13,178.75 L188.31,178.75 L189.50,178.75 L190.69,178.75 L191.88,178.75 L193.06,178.75 L194.25,178.75 L195.44,178.75 L196.63,178.75 L197.81,178.75 L199.00,178.75 L200.19,178.75 L201.38,178.75 L202.56,178.75 L203.75,178.75 L204.94,178.75 L206.13,178.75 L207.31,178.75 L208.50,178.75 L209.69,178.75 L210.88,178.75 L212.06,178.75 L213.25,178.75 L214.44,178.75 L215.63,178.75 L216.81,178.75 L218.00,178.75 L219.19,178.75 L220.38,178.75 L221.56,178.75 L222.75,178.75 L223.94,178.75 L225.13,178.75 L226.31,178.75 L227.50,178.75 L228.69,176.72 L229.88,174.69 L231.06,172.66 L232.25,170.62 L233.44,168.59 L234.63,166.56 L235.81,164.53 L237.00,162.50 L238.19,160.47 L239.38,158.44 L240.56,156.41 L241.75,154.37 L242.94,152.34 L244.13,150.31 L245.31,148.28 L246.50,146.25 L247.69,144.22 L248.88,142.19 L250.06,140.16 L251.25,138.12 L252.44,136.09 L253.63,134.06 L254.81,132.03 L256.00,130.00 L257.19,127.97 L258.38,125.94 L259.56,123.91 L260.75,121.87 L261.94,119.84 L263.13,117.81 L264.31,115.78 L265.50,113.75 L266.69,111.72 L267.88,109.69 L269.06,107.66 L270.25,105.62 L271.44,103.59 L272.63,101.56 L273.81,99.53 L275.00,97.50 L276.19,99.53 L277.38,101.56 L278.56,103.59 L279.75,105.63 L280.94,107.66 L282.13,109.69 L283.31,111.72 L284.50,113.75 L285.69,115.78 L286.88,117.81 L288.06,119.84 L289.25,121.88 L290.44,123.91 L291.63,125.94 L292.81,127.97 L294.00,130.00 L295.19,132.03 L296.38,134.06 L297.56,136.09 L298.75,138.13 L299.94,140.16 L301.13,142.19 L302.31,144.22 L303.50,146.25 L304.69,148.28 L305.88,150.31 L307.06,152.34 L308.25,154.38 L309.44,156.41 L310.63,158.44 L311.81,160.47 L313.00,162.50 L314.19,164.53 L315.38,166.56 L316.56,168.59 L317.75,170.63 L318.94,172.66 L320.13,174.69 L321.31,176.72 L322.50,178.75 L323.69,178.75 L324.88,178.75 L326.06,178.75 L327.25,178.75 L328.44,178.75 L329.63,178.75 L330.81,178.75 L332.00,178.75 L333.19,178.75 L334.38,178.75 L335.56,178.75 L336.75,178.75 L337.94,178.75 L339.13,178.75 L340.31,178.75 L341.50,178.75 L342.69,178.75 L343.88,178.75 L345.06,178.75 L346.25,178.75 L347.44,178.75 L348.63,178.75 L349.81,178.75 L351.00,178.75 L352.19,178.75 L353.38,178.75 L354.56,178.75 L355.75,178.75 L356.94,178.75 L358.13,178.75 L359.31,178.75 L360.50,178.75 L361.69,178.75 L362.88,178.75 L364.06,178.75 L365.25,178.75 L366.44,178.75 L367.63,178.75 L368.81,178.75 L370.00,178.75 L371.19,178.75 L372.38,178.75 L373.56,178.75 L374.75,178.75 L375.94,178.75 L377.13,178.75 L378.31,178.75 L379.50,178.75 L380.69,178.75 L381.88,178.75 L383.06,178.75 L384.25,178.75 L385.44,178.75 L386.63,178.75 L387.81,178.75 L389.00,178.75 L390.19,178.75 L391.38,178.75 L392.56,178.75 L393.75,178.75 L394.94,178.75 L396.13,178.75 L397.31,178.75 L398.50,178.75 L399.69,178.75 L400.88,178.75 L402.06,178.75 L403.25,178.75 L404.44,178.75 L405.63,178.75 L406.81,178.75 L408.00,178.75 L409.19,178.75 L410.38,178.75 L411.56,178.75 L412.75,178.75 L413.94,178.75 L415.13,178.75 L416.31,178.75 L417.50,178.75 L418.69,176.72 L419.88,174.69 L421.06,172.66 L422.25,170.62 L423.44,168.59 L424.63,166.56 L425.81,164.53 L427.00,162.50 L428.19,160.47 L429.38,158.44 L430.56,156.41 L431.75,154.37 L432.94,152.34 L434.13,150.31 L435.31,148.28 L436.50,146.25 L437.69,144.22 L438.88,142.19 L440.06,140.16 L441.25,138.12 L442.44,136.09 L443.63,134.06 L444.81,132.03 L446.00,130.00 L447.19,127.97 L448.38,125.94 L449.56,123.91 L450.75,121.87 L451.94,119.84 L453.13,117.81 L454.31,115.78 L455.50,113.75 L456.69,111.72 L457.88,109.69 L459.06,107.66 L460.25,105.62 L461.44,103.59 L462.63,101.56 L463.81,99.53 L465.00,97.50 L466.19,99.53 L467.38,101.56 L468.56,103.59 L469.75,105.63 L470.94,107.66 L472.13,109.69 L473.31,111.72 L474.50,113.75 L475.69,115.78 L476.88,117.81 L478.06,119.84 L479.25,121.88 L480.44,123.91 L481.63,125.94 L482.81,127.97 L484.00,130.00 L485.19,132.03 L486.38,134.06 L487.56,136.09 L488.75,138.13 L489.94,140.16 L491.13,142.19 L492.31,144.22 L493.50,146.25 L494.69,148.28 L495.88,150.31 L497.06,152.34 L498.25,154.38 L499.44,156.41 L500.63,158.44 L501.81,160.47 L503.00,162.50 L504.19,164.53 L505.38,166.56 L506.56,168.59 L507.75,170.63 L508.94,172.66 L510.13,174.69 L511.31,176.72 L512.50,178.75 L513.69,178.75 L514.88,178.75 L516.06,178.75 L517.25,178.75 L518.44,178.75 L519.63,178.75 L520.81,178.75 L522.00,178.75 L523.19,178.75 L524.38,178.75 L525.56,178.75 L526.75,178.75 L527.94,178.75 L529.13,178.75 L530.31,178.75 L531.50,178.75 L532.69,178.75 L533.88,178.75 L535.06,178.75 L536.25,178.75 L537.44,178.75 L538.63,178.75 L539.81,178.75 L541.00,178.75 L542.19,178.75 L543.38,178.75 L544.56,178.75 L545.75,178.75 L546.94,178.75 L548.13,178.75 L549.31,178.75 L550.50,178.75 L551.69,178.75 L552.88,178.75 L554.06,178.75 L555.25,178.75 L556.44,178.75 L557.63,178.75 L558.81,178.75 L560.00,178.75 L561.19,178.75 L562.38,178.75 L563.56,178.75 L564.75,178.75 L565.94,178.75 L567.13,178.75 L568.31,178.75 L569.50,178.75 L570.69,178.75 L571.88,178.75 L573.06,178.75 L574.25,178.75 L575.44,178.75 L576.63,178.75 L577.81,178.75 L579.00,178.75 L580.19,178.75 L581.38,178.75 L582.56,178.75 L583.75,178.75 L584.94,178.75 L586.13,178.75 L587.31,178.75 L588.50,178.75 L589.69,178.75 L590.88,178.75 L592.06,178.75 L593.25,178.75 L594.44,178.75 L595.63,178.75 L596.81,178.75 L598.00,178.75 L599.19,178.75 L600.38,178.75 L601.56,178.75 L602.75,178.75 L603.94,178.75 L605.13,178.75 L606.31,178.75 L607.50,178.75 L608.69,176.72 L609.88,174.69 L611.06,172.66 L612.25,170.62 L613.44,168.59 L614.63,166.56 L615.81,164.53 L617.00,162.50 L618.19,160.47 L619.38,158.44 L620.56,156.41 L621.75,154.37 L622.94,152.34 L624.13,150.31 L625.31,148.28 L626.50,146.25 L627.69,144.22 L628.88,142.19 L630.06,140.16 L631.25,138.12 L632.44,136.09 L633.63,134.06 L634.81,132.03 L636.00,130.00 L637.19,127.97 L638.38,125.94 L639.56,123.91 L640.75,121.87 L641.94,119.84 L643.13,117.81 L644.31,115.78 L645.50,113.75 L646.69,111.72 L647.88,109.69 L649.06,107.66 L650.25,105.62 L651.44,103.59 L652.63,101.56 L653.81,99.53 L655.00,97.50 L656.19,99.53 L657.38,101.56 L658.56,103.59 L659.75,105.63 L660.94,107.66 L662.13,109.69 L663.31,111.72 L664.50,113.75 L665.69,115.78 L666.88,117.81 L668.06,119.84 L669.25,121.88 L670.44,123.91 L671.63,125.94 L672.81,127.97 L674.00,130.00 L675.19,132.03 L676.38,134.06 L677.56,136.09 L678.75,138.13 L679.94,140.16 L681.13,142.19 L682.31,144.22 L683.50,146.25 L684.69,148.28 L685.88,150.31 L687.06,152.34 L688.25,154.38 L689.44,156.41 L690.63,158.44 L691.81,160.47 L693.00,162.50 L694.19,164.53 L695.38,166.56 L696.56,168.59 L697.75,170.63 L698.94,172.66 L700.13,174.69 L701.31,176.72 L702.50,178.75 L703.69,178.75 L704.88,178.75 L706.06,178.75 L707.25,178.75 L708.44,178.75 L709.63,178.75 L710.81,178.75 L712.00,178.75 L713.19,178.75 L714.38,178.75 L715.56,178.75 L716.75,178.75 L717.94,178.75 L719.13,178.75 L720.31,178.75 L721.50,178.75 L722.69,178.75 L723.88,178.75 L725.06,178.75 L726.25,178.75 L727.44,178.75 L728.63,178.75 L729.81,178.75 L731.00,178.75 L732.19,178.75 L733.38,178.75 L734.56,178.75 L735.75,178.75 L736.94,178.75 L738.13,178.75 L739.31,178.75 L740.50,178.75 L741.69,178.75 L742.88,178.75 L744.06,178.75 L745.25,178.75 L746.44,178.75 L747.63,178.75 L748.81,178.75 L750.00,178.75 L751.19,178.75 L752.38,178.75 L753.56,178.75 L754.75,178.75 L755.94,178.75 L757.13,178.75 L758.31,178.75 L759.50,178.75 L760.69,178.75 L761.88,178.75 L763.06,178.75 L764.25,178.75 L765.44,178.75 L766.63,178.75 L767.81,178.75 L769.00,178.75 L770.19,178.75 L771.38,178.75 L772.56,178.75 L773.75,178.75 L774.94,178.75 L776.13,178.75 L777.31,178.75 L778.50,178.75 L779.69,178.75 L780.88,178.75 L782.06,178.75 L783.25,178.75 L784.44,178.75 L785.63,178.75 L786.81,178.75 L788.00,178.75 L789.19,178.75 L790.38,178.75 L791.56,178.75 L792.75,178.75 L793.94,178.75 L795.13,178.75 L796.31,178.75 L797.50,178.75 L798.69,176.72 L799.88,174.69 L801.06,172.66 L802.25,170.62 L803.44,168.59 L804.63,166.56 L805.81,164.53 L807.00,162.50 L808.19,160.47 L809.38,158.44 L810.56,156.41 L811.75,154.37 L812.94,152.34 L814.13,150.31 L815.31,148.28 L816.50,146.25 L817.69,144.22 L818.88,142.19 L820.06,140.16 L821.25,138.12 L822.44,136.09 L823.63,134.06 L824.81,132.03 L826.00,130.00 L827.19,127.97 L828.38,125.94 L829.56,123.91 L830.75,121.87 L831.94,119.84 L833.13,117.81 L834.31,115.78 L835.50,113.75 L836.69,111.72 L837.88,109.69 L839.06,107.66 L840.25,105.62 L841.44,103.59 L842.63,101.56 L843.81,99.53 L845.00,97.50" fill="none" stroke="#1a4d8f" stroke-width="2" stroke-linejoin="round" stroke-linecap="round"/><text x="465" y="252" text-anchor="middle" fill="#1a1a2e" font-size="15" font-weight="700">混叠（ωs = 3 &lt; 2ωM = 4）：频谱重叠</text><rect x="85" y="270" width="760" height="130" fill="#ffffff" stroke="#d5d2c8" stroke-width="1"/><line x1="148.33" y1="270" x2="148.33" y2="400" stroke="#d5d2c8" stroke-opacity="0.45"/><text x="148.33" y="420" text-anchor="middle" fill="#6b6b7d" font-size="11">-10</text><line x1="306.67" y1="270" x2="306.67" y2="400" stroke="#d5d2c8" stroke-opacity="0.45"/><text x="306.67" y="420" text-anchor="middle" fill="#6b6b7d" font-size="11">-5</text><line x1="465.00" y1="270" x2="465.00" y2="400" stroke="#d5d2c8" stroke-opacity="0.45"/><text x="465.00" y="420" text-anchor="middle" fill="#6b6b7d" font-size="11">0</text><line x1="623.33" y1="270" x2="623.33" y2="400" stroke="#d5d2c8" stroke-opacity="0.45"/><text x="623.33" y="420" text-anchor="middle" fill="#6b6b7d" font-size="11">5</text><line x1="781.67" y1="270" x2="781.67" y2="400" stroke="#d5d2c8" stroke-opacity="0.45"/><text x="781.67" y="420" text-anchor="middle" fill="#6b6b7d" font-size="11">10</text><line x1="85" y1="388.18" x2="845" y2="388.18" stroke="#d5d2c8" stroke-opacity="0.35"/><text x="77" y="392.18" text-anchor="end" fill="#6b6b7d" font-size="11">0</text><line x1="85" y1="329.09" x2="845" y2="329.09" stroke="#d5d2c8" stroke-opacity="0.35"/><text x="77" y="333.09" text-anchor="end" fill="#6b6b7d" font-size="11">0.5</text><line x1="85" y1="270.00" x2="845" y2="270.00" stroke="#d5d2c8" stroke-opacity="0.35"/><text x="77" y="274.00" text-anchor="end" fill="#6b6b7d" font-size="11">1</text><line x1="85" y1="388.18" x2="845" y2="388.18" stroke="#1a1a2e" stroke-opacity="0.55"/><line x1="465.00" y1="270" x2="465.00" y2="400" stroke="#1a1a2e" stroke-opacity="0.25"/><text x="861" y="402" fill="#6b6b7d" font-size="13" font-style="italic">ω</text><path d="M85.00,388.18 L85.00,329.09 L86.58,330.57 L88.17,332.05 L89.75,333.52 L91.33,335.00 L92.92,336.48 L94.50,337.95 L96.08,339.43 L97.67,340.91 L99.25,342.39 L100.83,343.86 L102.42,345.34 L104.00,346.82 L105.58,348.30 L107.17,349.77 L108.75,351.25 L110.33,352.73 L111.92,354.20 L113.50,355.68 L115.08,357.16 L116.67,358.64 L118.25,358.64 L119.83,358.64 L121.42,358.64 L123.00,358.64 L124.58,358.64 L126.17,358.64 L127.75,358.64 L129.33,358.64 L130.92,358.64 L132.50,358.64 L134.08,358.64 L135.67,358.64 L137.25,358.64 L138.83,358.64 L140.42,358.64 L142.00,358.64 L143.58,358.64 L145.17,358.64 L146.75,358.64 L148.33,358.64 L149.92,357.16 L151.50,355.68 L153.08,354.20 L154.67,352.73 L156.25,351.25 L157.83,349.77 L159.42,348.30 L161.00,346.82 L162.58,345.34 L164.17,343.86 L165.75,342.39 L167.33,340.91 L168.92,339.43 L170.50,337.95 L172.08,336.48 L173.67,335.00 L175.25,333.52 L176.83,332.05 L178.42,330.57 L180.00,329.09 L181.58,330.57 L183.17,332.05 L184.75,333.52 L186.33,335.00 L187.92,336.48 L189.50,337.95 L191.08,339.43 L192.67,340.91 L194.25,342.39 L195.83,343.86 L197.42,345.34 L199.00,346.82 L200.58,348.30 L202.17,349.77 L203.75,351.25 L205.33,352.73 L206.92,354.20 L208.50,355.68 L210.08,357.16 L211.67,358.64 L213.25,358.64 L214.83,358.64 L216.42,358.64 L218.00,358.64 L219.58,358.64 L221.17,358.64 L222.75,358.64 L224.33,358.64 L225.92,358.64 L227.50,358.64 L229.08,358.64 L230.67,358.64 L232.25,358.64 L233.83,358.64 L235.42,358.64 L237.00,358.64 L238.58,358.64 L240.17,358.64 L241.75,358.64 L243.33,358.64 L244.92,357.16 L246.50,355.68 L248.08,354.20 L249.67,352.73 L251.25,351.25 L252.83,349.77 L254.42,348.30 L256.00,346.82 L257.58,345.34 L259.17,343.86 L260.75,342.39 L262.33,340.91 L263.92,339.43 L265.50,337.95 L267.08,336.48 L268.67,335.00 L270.25,333.52 L271.83,332.05 L273.42,330.57 L275.00,329.09 L276.58,330.57 L278.17,332.05 L279.75,333.52 L281.33,335.00 L282.92,336.48 L284.50,337.95 L286.08,339.43 L287.67,340.91 L289.25,342.39 L290.83,343.86 L292.42,345.34 L294.00,346.82 L295.58,348.30 L297.17,349.77 L298.75,351.25 L300.33,352.73 L301.92,354.20 L303.50,355.68 L305.08,357.16 L306.67,358.64 L308.25,358.64 L309.83,358.64 L311.42,358.64 L313.00,358.64 L314.58,358.64 L316.17,358.64 L317.75,358.64 L319.33,358.64 L320.92,358.64 L322.50,358.64 L324.08,358.64 L325.67,358.64 L327.25,358.64 L328.83,358.64 L330.42,358.64 L332.00,358.64 L333.58,358.64 L335.17,358.64 L336.75,358.64 L338.33,358.64 L339.92,357.16 L341.50,355.68 L343.08,354.20 L344.67,352.73 L346.25,351.25 L347.83,349.77 L349.42,348.30 L351.00,346.82 L352.58,345.34 L354.17,343.86 L355.75,342.39 L357.33,340.91 L358.92,339.43 L360.50,337.95 L362.08,336.48 L363.67,335.00 L365.25,333.52 L366.83,332.05 L368.42,330.57 L370.00,329.09 L371.58,330.57 L373.17,332.05 L374.75,333.52 L376.33,335.00 L377.92,336.48 L379.50,337.95 L381.08,339.43 L382.67,340.91 L384.25,342.39 L385.83,343.86 L387.42,345.34 L389.00,346.82 L390.58,348.30 L392.17,349.77 L393.75,351.25 L395.33,352.73 L396.92,354.20 L398.50,355.68 L400.08,357.16 L401.67,358.64 L403.25,358.64 L404.83,358.64 L406.42,358.64 L408.00,358.64 L409.58,358.64 L411.17,358.64 L412.75,358.64 L414.33,358.64 L415.92,358.64 L417.50,358.64 L419.08,358.64 L420.67,358.64 L422.25,358.64 L423.83,358.64 L425.42,358.64 L427.00,358.64 L428.58,358.64 L430.17,358.64 L431.75,358.64 L433.33,358.64 L434.92,357.16 L436.50,355.68 L438.08,354.20 L439.67,352.73 L441.25,351.25 L442.83,349.77 L444.42,348.30 L446.00,346.82 L447.58,345.34 L449.17,343.86 L450.75,342.39 L452.33,340.91 L453.92,339.43 L455.50,337.95 L457.08,336.48 L458.67,335.00 L460.25,333.52 L461.83,332.05 L463.42,330.57 L465.00,329.09 L466.58,330.57 L468.17,332.05 L469.75,333.52 L471.33,335.00 L472.92,336.48 L474.50,337.95 L476.08,339.43 L477.67,340.91 L479.25,342.39 L480.83,343.86 L482.42,345.34 L484.00,346.82 L485.58,348.30 L487.17,349.77 L488.75,351.25 L490.33,352.73 L491.92,354.20 L493.50,355.68 L495.08,357.16 L496.67,358.64 L498.25,358.64 L499.83,358.64 L501.42,358.64 L503.00,358.64 L504.58,358.64 L506.17,358.64 L507.75,358.64 L509.33,358.64 L510.92,358.64 L512.50,358.64 L514.08,358.64 L515.67,358.64 L517.25,358.64 L518.83,358.64 L520.42,358.64 L522.00,358.64 L523.58,358.64 L525.17,358.64 L526.75,358.64 L528.33,358.64 L529.92,357.16 L531.50,355.68 L533.08,354.20 L534.67,352.73 L536.25,351.25 L537.83,349.77 L539.42,348.30 L541.00,346.82 L542.58,345.34 L544.17,343.86 L545.75,342.39 L547.33,340.91 L548.92,339.43 L550.50,337.95 L552.08,336.48 L553.67,335.00 L555.25,333.52 L556.83,332.05 L558.42,330.57 L560.00,329.09 L561.58,330.57 L563.17,332.05 L564.75,333.52 L566.33,335.00 L567.92,336.48 L569.50,337.95 L571.08,339.43 L572.67,340.91 L574.25,342.39 L575.83,343.86 L577.42,345.34 L579.00,346.82 L580.58,348.30 L582.17,349.77 L583.75,351.25 L585.33,352.73 L586.92,354.20 L588.50,355.68 L590.08,357.16 L591.67,358.64 L593.25,358.64 L594.83,358.64 L596.42,358.64 L598.00,358.64 L599.58,358.64 L601.17,358.64 L602.75,358.64 L604.33,358.64 L605.92,358.64 L607.50,358.64 L609.08,358.64 L610.67,358.64 L612.25,358.64 L613.83,358.64 L615.42,358.64 L617.00,358.64 L618.58,358.64 L620.17,358.64 L621.75,358.64 L623.33,358.64 L624.92,357.16 L626.50,355.68 L628.08,354.20 L629.67,352.73 L631.25,351.25 L632.83,349.77 L634.42,348.30 L636.00,346.82 L637.58,345.34 L639.17,343.86 L640.75,342.39 L642.33,340.91 L643.92,339.43 L645.50,337.95 L647.08,336.48 L648.67,335.00 L650.25,333.52 L651.83,332.05 L653.42,330.57 L655.00,329.09 L656.58,330.57 L658.17,332.05 L659.75,333.52 L661.33,335.00 L662.92,336.48 L664.50,337.95 L666.08,339.43 L667.67,340.91 L669.25,342.39 L670.83,343.86 L672.42,345.34 L674.00,346.82 L675.58,348.30 L677.17,349.77 L678.75,351.25 L680.33,352.73 L681.92,354.20 L683.50,355.68 L685.08,357.16 L686.67,358.64 L688.25,358.64 L689.83,358.64 L691.42,358.64 L693.00,358.64 L694.58,358.64 L696.17,358.64 L697.75,358.64 L699.33,358.64 L700.92,358.64 L702.50,358.64 L704.08,358.64 L705.67,358.64 L707.25,358.64 L708.83,358.64 L710.42,358.64 L712.00,358.64 L713.58,358.64 L715.17,358.64 L716.75,358.64 L718.33,358.64 L719.92,357.16 L721.50,355.68 L723.08,354.20 L724.67,352.73 L726.25,351.25 L727.83,349.77 L729.42,348.30 L731.00,346.82 L732.58,345.34 L734.17,343.86 L735.75,342.39 L737.33,340.91 L738.92,339.43 L740.50,337.95 L742.08,336.48 L743.67,335.00 L745.25,333.52 L746.83,332.05 L748.42,330.57 L750.00,329.09 L751.58,330.57 L753.17,332.05 L754.75,333.52 L756.33,335.00 L757.92,336.48 L759.50,337.95 L761.08,339.43 L762.67,340.91 L764.25,342.39 L765.83,343.86 L767.42,345.34 L769.00,346.82 L770.58,348.30 L772.17,349.77 L773.75,351.25 L775.33,352.73 L776.92,354.20 L778.50,355.68 L780.08,357.16 L781.67,358.64 L783.25,358.64 L784.83,358.64 L786.42,358.64 L788.00,358.64 L789.58,358.64 L791.17,358.64 L792.75,358.64 L794.33,358.64 L795.92,358.64 L797.50,358.64 L799.08,358.64 L800.67,358.64 L802.25,358.64 L803.83,358.64 L805.42,358.64 L807.00,358.64 L808.58,358.64 L810.17,358.64 L811.75,358.64 L813.33,358.64 L814.92,357.16 L816.50,355.68 L818.08,354.20 L819.67,352.73 L821.25,351.25 L822.83,349.77 L824.42,348.30 L826.00,346.82 L827.58,345.34 L829.17,343.86 L830.75,342.39 L832.33,340.91 L833.92,339.43 L835.50,337.95 L837.08,336.48 L838.67,335.00 L840.25,333.52 L841.83,332.05 L843.42,330.57 L845.00,329.09 L845.00,388.18 Z" fill="#b8451a" fill-opacity="0.12"/><path d="M85.00,329.09 L86.58,330.57 L88.17,332.05 L89.75,333.52 L91.33,335.00 L92.92,336.48 L94.50,337.95 L96.08,339.43 L97.67,340.91 L99.25,342.39 L100.83,343.86 L102.42,345.34 L104.00,346.82 L105.58,348.30 L107.17,349.77 L108.75,351.25 L110.33,352.73 L111.92,354.20 L113.50,355.68 L115.08,357.16 L116.67,358.64 L118.25,358.64 L119.83,358.64 L121.42,358.64 L123.00,358.64 L124.58,358.64 L126.17,358.64 L127.75,358.64 L129.33,358.64 L130.92,358.64 L132.50,358.64 L134.08,358.64 L135.67,358.64 L137.25,358.64 L138.83,358.64 L140.42,358.64 L142.00,358.64 L143.58,358.64 L145.17,358.64 L146.75,358.64 L148.33,358.64 L149.92,357.16 L151.50,355.68 L153.08,354.20 L154.67,352.73 L156.25,351.25 L157.83,349.77 L159.42,348.30 L161.00,346.82 L162.58,345.34 L164.17,343.86 L165.75,342.39 L167.33,340.91 L168.92,339.43 L170.50,337.95 L172.08,336.48 L173.67,335.00 L175.25,333.52 L176.83,332.05 L178.42,330.57 L180.00,329.09 L181.58,330.57 L183.17,332.05 L184.75,333.52 L186.33,335.00 L187.92,336.48 L189.50,337.95 L191.08,339.43 L192.67,340.91 L194.25,342.39 L195.83,343.86 L197.42,345.34 L199.00,346.82 L200.58,348.30 L202.17,349.77 L203.75,351.25 L205.33,352.73 L206.92,354.20 L208.50,355.68 L210.08,357.16 L211.67,358.64 L213.25,358.64 L214.83,358.64 L216.42,358.64 L218.00,358.64 L219.58,358.64 L221.17,358.64 L222.75,358.64 L224.33,358.64 L225.92,358.64 L227.50,358.64 L229.08,358.64 L230.67,358.64 L232.25,358.64 L233.83,358.64 L235.42,358.64 L237.00,358.64 L238.58,358.64 L240.17,358.64 L241.75,358.64 L243.33,358.64 L244.92,357.16 L246.50,355.68 L248.08,354.20 L249.67,352.73 L251.25,351.25 L252.83,349.77 L254.42,348.30 L256.00,346.82 L257.58,345.34 L259.17,343.86 L260.75,342.39 L262.33,340.91 L263.92,339.43 L265.50,337.95 L267.08,336.48 L268.67,335.00 L270.25,333.52 L271.83,332.05 L273.42,330.57 L275.00,329.09 L276.58,330.57 L278.17,332.05 L279.75,333.52 L281.33,335.00 L282.92,336.48 L284.50,337.95 L286.08,339.43 L287.67,340.91 L289.25,342.39 L290.83,343.86 L292.42,345.34 L294.00,346.82 L295.58,348.30 L297.17,349.77 L298.75,351.25 L300.33,352.73 L301.92,354.20 L303.50,355.68 L305.08,357.16 L306.67,358.64 L308.25,358.64 L309.83,358.64 L311.42,358.64 L313.00,358.64 L314.58,358.64 L316.17,358.64 L317.75,358.64 L319.33,358.64 L320.92,358.64 L322.50,358.64 L324.08,358.64 L325.67,358.64 L327.25,358.64 L328.83,358.64 L330.42,358.64 L332.00,358.64 L333.58,358.64 L335.17,358.64 L336.75,358.64 L338.33,358.64 L339.92,357.16 L341.50,355.68 L343.08,354.20 L344.67,352.73 L346.25,351.25 L347.83,349.77 L349.42,348.30 L351.00,346.82 L352.58,345.34 L354.17,343.86 L355.75,342.39 L357.33,340.91 L358.92,339.43 L360.50,337.95 L362.08,336.48 L363.67,335.00 L365.25,333.52 L366.83,332.05 L368.42,330.57 L370.00,329.09 L371.58,330.57 L373.17,332.05 L374.75,333.52 L376.33,335.00 L377.92,336.48 L379.50,337.95 L381.08,339.43 L382.67,340.91 L384.25,342.39 L385.83,343.86 L387.42,345.34 L389.00,346.82 L390.58,348.30 L392.17,349.77 L393.75,351.25 L395.33,352.73 L396.92,354.20 L398.50,355.68 L400.08,357.16 L401.67,358.64 L403.25,358.64 L404.83,358.64 L406.42,358.64 L408.00,358.64 L409.58,358.64 L411.17,358.64 L412.75,358.64 L414.33,358.64 L415.92,358.64 L417.50,358.64 L419.08,358.64 L420.67,358.64 L422.25,358.64 L423.83,358.64 L425.42,358.64 L427.00,358.64 L428.58,358.64 L430.17,358.64 L431.75,358.64 L433.33,358.64 L434.92,357.16 L436.50,355.68 L438.08,354.20 L439.67,352.73 L441.25,351.25 L442.83,349.77 L444.42,348.30 L446.00,346.82 L447.58,345.34 L449.17,343.86 L450.75,342.39 L452.33,340.91 L453.92,339.43 L455.50,337.95 L457.08,336.48 L458.67,335.00 L460.25,333.52 L461.83,332.05 L463.42,330.57 L465.00,329.09 L466.58,330.57 L468.17,332.05 L469.75,333.52 L471.33,335.00 L472.92,336.48 L474.50,337.95 L476.08,339.43 L477.67,340.91 L479.25,342.39 L480.83,343.86 L482.42,345.34 L484.00,346.82 L485.58,348.30 L487.17,349.77 L488.75,351.25 L490.33,352.73 L491.92,354.20 L493.50,355.68 L495.08,357.16 L496.67,358.64 L498.25,358.64 L499.83,358.64 L501.42,358.64 L503.00,358.64 L504.58,358.64 L506.17,358.64 L507.75,358.64 L509.33,358.64 L510.92,358.64 L512.50,358.64 L514.08,358.64 L515.67,358.64 L517.25,358.64 L518.83,358.64 L520.42,358.64 L522.00,358.64 L523.58,358.64 L525.17,358.64 L526.75,358.64 L528.33,358.64 L529.92,357.16 L531.50,355.68 L533.08,354.20 L534.67,352.73 L536.25,351.25 L537.83,349.77 L539.42,348.30 L541.00,346.82 L542.58,345.34 L544.17,343.86 L545.75,342.39 L547.33,340.91 L548.92,339.43 L550.50,337.95 L552.08,336.48 L553.67,335.00 L555.25,333.52 L556.83,332.05 L558.42,330.57 L560.00,329.09 L561.58,330.57 L563.17,332.05 L564.75,333.52 L566.33,335.00 L567.92,336.48 L569.50,337.95 L571.08,339.43 L572.67,340.91 L574.25,342.39 L575.83,343.86 L577.42,345.34 L579.00,346.82 L580.58,348.30 L582.17,349.77 L583.75,351.25 L585.33,352.73 L586.92,354.20 L588.50,355.68 L590.08,357.16 L591.67,358.64 L593.25,358.64 L594.83,358.64 L596.42,358.64 L598.00,358.64 L599.58,358.64 L601.17,358.64 L602.75,358.64 L604.33,358.64 L605.92,358.64 L607.50,358.64 L609.08,358.64 L610.67,358.64 L612.25,358.64 L613.83,358.64 L615.42,358.64 L617.00,358.64 L618.58,358.64 L620.17,358.64 L621.75,358.64 L623.33,358.64 L624.92,357.16 L626.50,355.68 L628.08,354.20 L629.67,352.73 L631.25,351.25 L632.83,349.77 L634.42,348.30 L636.00,346.82 L637.58,345.34 L639.17,343.86 L640.75,342.39 L642.33,340.91 L643.92,339.43 L645.50,337.95 L647.08,336.48 L648.67,335.00 L650.25,333.52 L651.83,332.05 L653.42,330.57 L655.00,329.09 L656.58,330.57 L658.17,332.05 L659.75,333.52 L661.33,335.00 L662.92,336.48 L664.50,337.95 L666.08,339.43 L667.67,340.91 L669.25,342.39 L670.83,343.86 L672.42,345.34 L674.00,346.82 L675.58,348.30 L677.17,349.77 L678.75,351.25 L680.33,352.73 L681.92,354.20 L683.50,355.68 L685.08,357.16 L686.67,358.64 L688.25,358.64 L689.83,358.64 L691.42,358.64 L693.00,358.64 L694.58,358.64 L696.17,358.64 L697.75,358.64 L699.33,358.64 L700.92,358.64 L702.50,358.64 L704.08,358.64 L705.67,358.64 L707.25,358.64 L708.83,358.64 L710.42,358.64 L712.00,358.64 L713.58,358.64 L715.17,358.64 L716.75,358.64 L718.33,358.64 L719.92,357.16 L721.50,355.68 L723.08,354.20 L724.67,352.73 L726.25,351.25 L727.83,349.77 L729.42,348.30 L731.00,346.82 L732.58,345.34 L734.17,343.86 L735.75,342.39 L737.33,340.91 L738.92,339.43 L740.50,337.95 L742.08,336.48 L743.67,335.00 L745.25,333.52 L746.83,332.05 L748.42,330.57 L750.00,329.09 L751.58,330.57 L753.17,332.05 L754.75,333.52 L756.33,335.00 L757.92,336.48 L759.50,337.95 L761.08,339.43 L762.67,340.91 L764.25,342.39 L765.83,343.86 L767.42,345.34 L769.00,346.82 L770.58,348.30 L772.17,349.77 L773.75,351.25 L775.33,352.73 L776.92,354.20 L778.50,355.68 L780.08,357.16 L781.67,358.64 L783.25,358.64 L784.83,358.64 L786.42,358.64 L788.00,358.64 L789.58,358.64 L791.17,358.64 L792.75,358.64 L794.33,358.64 L795.92,358.64 L797.50,358.64 L799.08,358.64 L800.67,358.64 L802.25,358.64 L803.83,358.64 L805.42,358.64 L807.00,358.64 L808.58,358.64 L810.17,358.64 L811.75,358.64 L813.33,358.64 L814.92,357.16 L816.50,355.68 L818.08,354.20 L819.67,352.73 L821.25,351.25 L822.83,349.77 L824.42,348.30 L826.00,346.82 L827.58,345.34 L829.17,343.86 L830.75,342.39 L832.33,340.91 L833.92,339.43 L835.50,337.95 L837.08,336.48 L838.67,335.00 L840.25,333.52 L841.83,332.05 L843.42,330.57 L845.00,329.09" fill="none" stroke="#b8451a" stroke-width="2" stroke-linejoin="round" stroke-linecap="round"/>
</svg>
