<?xml version="1.0" encoding="UTF-8"?>
<svg xmlns="http://www.w3.org/2000/svg" viewBox="0 0 920 360" width="920" height="360" role="img">
<style>text{font-family:InstrumentSans, -apple-system, BlinkMacSystemFont, 'PingFang SC', 'Microsoft YaHei', sans-serif}</style>
<rect width="920" height="360" rx="8" fill="#fbfaf6"/>
<text x="235" y="47" text-anchor="middle" fill="#1a1a2e" font-size="15" font-weight="700">幅频响应 |H(jω)|</text><rect x="70" y="65" width="330" height="230" fill="#ffffff" stroke="#d5d2c8" stroke-width="1"/><line x1="131.88" y1="65" x2="131.88" y2="295" stroke="#d5d2c8" stroke-opacity="0.45"/><text x="131.88" y="315" text-anchor="middle" fill="#6b6b7d" font-size="11">-5</text><line x1="235.00" y1="65" x2="235.00" y2="295" stroke="#d5d2c8" stroke-opacity="0.45"/><text x="235.00" y="315" text-anchor="middle" fill="#6b6b7d" font-size="11">0</text><line x1="338.13" y1="65" x2="338.13" y2="295" stroke="#d5d2c8" stroke-opacity="0.45"/><text x="338.13" y="315" text-anchor="middle" fill="#6b6b7d" font-size="11">5</text><line x1="441.25" y1="65" x2="441.25" y2="295" stroke="#d5d2c8" stroke-opacity="0.45"/><text x="441.25" y="315" text-anchor="middle" fill="#6b6b7d" font-size="11">10</text><line x1="70" y1="251.88" x2="400" y2="251.88" stroke="#d5d2c8" stroke-opacity="0.35"/><text x="62" y="255.88" text-anchor="end" fill="#6b6b7d" font-size="11">0</text><line x1="70" y1="180.00" x2="400" y2="180.00" stroke="#d5d2c8" stroke-opacity="0.35"/><text x="62" y="184.00" text-anchor="end" fill="#6b6b7d" font-size="11">0.5</text><line x1="70" y1="108.13" x2="400" y2="108.13" stroke="#d5d2c8" stroke-opacity="0.35"/><text x="62" y="112.13" text-anchor="end" fill="#6b6b7d" font-size="11">1</text><line x1="70" y1="36.25" x2="400" y2="36.25" stroke="#d5d2c8" stroke-opacity="0.35"/><text x="62" y="40.25" text-anchor="end" fill="#6b6b7d" font-size="11">1.5</text><line x1="70" y1="251.88" x2="400" y2="251.88" stroke="#1a1a2e" stroke-opacity="0.55"/><line x1="235.00" y1="65" x2="235.00" y2="295" stroke="#1a1a2e" stroke-opacity="0.25"/><text x="416" y="297" fill="#6b6b7d" font-size="13" font-style="italic">ω</text><path d="M70.00,251.88 L70.00,251.88 L71.03,251.88 L72.06,251.88 L73.09,251.88 L74.12,251.88 L75.16,251.88 L76.19,251.88 L77.22,251.88 L78.25,251.88 L79.28,251.88 L80.31,251.88 L81.34,251.88 L82.37,251.88 L83.41,251.88 L84.44,251.88 L85.47,251.88 L86.50,251.88 L87.53,251.88 L88.56,251.88 L89.59,251.88 L90.62,251.88 L91.66,251.88 L92.69,251.88 L93.72,251.88 L94.75,251.88 L95.78,251.88 L96.81,251.88 L97.84,251.88 L98.87,251.88 L99.91,251.88 L100.94,251.88 L101.97,251.88 L103.00,251.88 L104.03,251.88 L105.06,251.88 L106.09,251.88 L107.12,251.88 L108.16,251.88 L109.19,251.88 L110.22,251.88 L111.25,251.88 L112.28,251.88 L113.31,251.88 L114.34,251.88 L115.37,251.88 L116.41,251.88 L117.44,251.88 L118.47,251.88 L119.50,251.88 L120.53,251.88 L121.56,251.88 L122.59,251.88 L123.62,251.88 L124.66,251.88 L125.69,251.88 L126.72,251.88 L127.75,251.88 L128.78,251.88 L129.81,251.88 L130.84,251.88 L131.87,251.88 L132.91,251.88 L133.94,251.88 L134.97,251.88 L136.00,251.88 L137.03,251.88 L138.06,251.88 L139.09,251.88 L140.12,251.88 L141.16,251.88 L142.19,251.88 L143.22,251.88 L144.25,251.88 L145.28,251.88 L146.31,251.88 L147.34,251.88 L148.37,251.88 L149.41,251.88 L150.44,251.88 L151.47,251.88 L152.50,251.88 L153.53,251.88 L154.56,251.88 L155.59,251.88 L156.62,251.88 L157.66,251.88 L158.69,251.88 L159.72,251.88 L160.75,251.88 L161.78,251.88 L162.81,251.88 L163.84,251.88 L164.87,251.88 L165.91,251.88 L166.94,251.88 L167.97,251.88 L169.00,251.88 L170.03,251.88 L171.06,251.88 L172.09,251.88 L173.12,251.88 L174.16,108.13 L175.19,108.13 L176.22,108.13 L177.25,108.13 L178.28,108.13 L179.31,108.13 L180.34,108.13 L181.37,108.13 L182.41,108.13 L183.44,108.13 L184.47,108.13 L185.50,108.13 L186.53,108.13 L187.56,108.13 L188.59,108.13 L189.62,108.13 L190.66,108.13 L191.69,108.13 L192.72,108.13 L193.75,108.13 L194.78,108.13 L195.81,108.13 L196.84,108.13 L197.87,108.13 L198.91,108.13 L199.94,108.13 L200.97,108.13 L202.00,108.13 L203.03,108.13 L204.06,108.13 L205.09,108.13 L206.12,108.13 L207.16,108.13 L208.19,108.13 L209.22,108.13 L210.25,108.13 L211.28,108.13 L212.31,108.13 L213.34,108.13 L214.37,108.13 L215.41,108.13 L216.44,108.13 L217.47,108.13 L218.50,108.13 L219.53,108.13 L220.56,108.13 L221.59,108.13 L222.62,108.13 L223.66,108.13 L224.69,108.13 L225.72,108.13 L226.75,108.13 L227.78,108.13 L228.81,108.13 L229.84,108.13 L230.87,108.13 L231.91,108.13 L232.94,108.13 L233.97,108.13 L235.00,108.13 L236.03,108.13 L237.06,108.13 L238.09,108.13 L239.12,108.13 L240.16,108.13 L241.19,108.13 L242.22,108.13 L243.25,108.13 L244.28,108.13 L245.31,108.13 L246.34,108.13 L247.37,108.13 L248.41,108.13 L249.44,108.13 L250.47,108.13 L251.50,108.13 L252.53,108.13 L253.56,108.13 L254.59,108.13 L255.62,108.13 L256.66,108.13 L257.69,108.13 L258.72,108.13 L259.75,108.13 L260.78,108.13 L261.81,108.13 L262.84,108.13 L263.87,108.13 L264.91,108.13 L265.94,108.13 L266.97,108.13 L268.00,108.13 L269.03,108.13 L270.06,108.13 L271.09,108.13 L272.12,108.13 L273.16,108.13 L274.19,108.13 L275.22,108.13 L276.25,108.13 L277.28,108.13 L278.31,108.13 L279.34,108.13 L280.37,108.13 L281.41,108.13 L282.44,108.13 L283.47,108.13 L284.50,108.13 L285.53,108.13 L286.56,108.13 L287.59,108.13 L288.62,108.13 L289.66,108.13 L290.69,108.13 L291.72,108.13 L292.75,108.13 L293.78,108.13 L294.81,108.13 L295.84,108.13 L296.87,108.13 L297.91,251.88 L298.94,251.88 L299.97,251.88 L301.00,251.88 L302.03,251.88 L303.06,251.88 L304.09,251.88 L305.12,251.88 L306.16,251.88 L307.19,251.88 L308.22,251.88 L309.25,251.88 L310.28,251.88 L311.31,251.88 L312.34,251.88 L313.37,251.88 L314.41,251.88 L315.44,251.88 L316.47,251.88 L317.50,251.88 L318.53,251.88 L319.56,251.88 L320.59,251.88 L321.62,251.88 L322.66,251.88 L323.69,251.88 L324.72,251.88 L325.75,251.88 L326.78,251.88 L327.81,251.88 L328.84,251.88 L329.87,251.88 L330.91,251.88 L331.94,251.88 L332.97,251.88 L334.00,251.88 L335.03,251.88 L336.06,251.88 L337.09,251.88 L338.12,251.88 L339.16,251.88 L340.19,251.88 L341.22,251.88 L342.25,251.88 L343.28,251.88 L344.31,251.88 L345.34,251.88 L346.37,251.88 L347.41,251.88 L348.44,251.88 L349.47,251.88 L350.50,251.88 L351.53,251.88 L352.56,251.88 L353.59,251.88 L354.62,251.88 L355.66,251.88 L356.69,251.88 L357.72,251.88 L358.75,251.88 L359.78,251.88 L360.81,251.88 L361.84,251.88 L362.87,251.88 L363.91,251.88 L364.94,251.88 L365.97,251.88 L367.00,251.88 L368.03,251.88 L369.06,251.88 L370.09,251.88 L371.12,251.88 L372.16,251.88 L373.19,251.88 L374.22,251.88 L375.25,251.88 L376.28,251.88 L377.31,251.88 L378.34,251.88 L379.37,251.88 L380.41,251.88 L381.44,251.88 L382.47,251.88 L383.50,251.88 L384.53,251.88 L385.56,251.88 L386.59,251.88 L387.62,251.88 L388.66,251.88 L389.69,251.88 L390.72,251.88 L391.75,251.88 L392.78,251.88 L393.81,251.88 L394.84,251.88 L395.87,251.88 L396.91,251.88 L397.94,251.88 L398.97,251.88 L400.00,251.88 L400.00,251.88 Z" fill="#1a4d8f" fill-opacity="0.15"/><path d="M70.00,251.88 L71.03,251.88 L72.06,251.88 L73.09,251.88 L74.12,251.88 L75.16,251.88 L76.19,251.88 L77.22,251.88 L78.25,251.88 L79.28,251.88 L80.31,251.88 L81.34,251.88 L82.37,251.88 L83.41,251.88 L84.44,251.88 L85.47,251.88 L86.50,251.88 L87.53,251.88 L88.56,251.88 L89.59,251.88 L90.62,251.88 L91.66,251.88 L92.69,251.88 L93.72,251.88 L94.75,251.88 L95.78,251.88 L96.81,251.88 L97.84,251.88 L98.87,251.88 L99.91,251.88 L100.94,251.88 L101.97,251.88 L103.00,251.88 L104.03,251.88 L105.06,251.88 L106.09,251.88 L107.12,251.88 L108.16,251.88 L109.19,251.88 L110.22,251.88 L111.25,251.88 L112.28,251.88 L113.31,251.88 L114.34,251.88 L115.37,251.88 L116.41,251.88 L117.44,251.88 L118.47,251.88 L119.50,251.88 L120.53,251.88 L121.56,251.88 L122.59,251.88 L123.62,251.88 L124.66,251.88 L125.69,251.88 L126.72,251.88 L127.75,251.88 L128.78,251.88 L129.81,251.88 L130.84,251.88 L131.87,251.88 L132.91,251.88 L133.94,251.88 L134.97,251.88 L136.00,251.88 L137.03,251.88 L138.06,251.88 L139.09,251.88 L140.12,251.88 L141.16,251.88 L142.19,251.88 L143.22,251.88 L144.25,251.88 L145.28,251.88 L146.31,251.88 L147.34,251.88 L148.37,251.88 L149.41,251.88 L150.44,251.88 L151.47,251.88 L152.50,251.88 L153.53,251.88 L154.56,251.88 L155.59,251.88 L156.62,251.88 L157.66,251.88 L158.69,251.88 L159.72,251.88 L160.75,251.88 L161.78,251.88 L162.81,251.88 L163.84,251.88 L164.87,251.88 L165.91,251.88 L166.94,251.88 L167.97,251.88 L169.00,251.88 L170.03,251.88 L171.06,251.88 L172.09,251.88 L173.12,251.88 L174.16,108.13 L175.19,108.13 L176.22,108.13 L177.25,108.13 L178.28,108.13 L179.31,108.13 L180.34,108.13 L181.37,108.13 L182.41,108.13 L183.44,108.13 L184.47,108.13 L185.50,108.13 L186.53,108.13 L187.56,108.13 L188.59,108.13 L189.62,108.13 L190.66,108.13 L191.69,108.13 L192.72,108.13 L193.75,108.13 L194.78,108.13 L195.81,108.13 L196.84,108.13 L197.87,108.13 L198.91,108.13 L199.94,108.13 L200.97,108.13 L202.00,108.13 L203.03,108.13 L204.06,108.13 L205.09,108.13 L206.12,108.13 L207.16,108.13 L208.19,108.13 L209.22,108.13 L210.25,108.13 L211.28,108.13 L212.31,108.13 L213.34,108.13 L214.37,108.13 L215.41,108.13 L216.44,108.13 L217.47,108.13 L218.50,108.13 L219.53,108.13 L220.56,108.13 L221.59,108.13 L222.62,108.13 L223.66,108.13 L224.69,108.13 L225.72,108.13 L226.75,108.13 L227.78,108.13 L228.81,108.13 L229.84,108.13 L230.87,108.13 L231.91,108.13 L232.94,108.13 L233.97,108.13 L235.00,108.13 L236.03,108.13 L237.06,108.13 L238.09,108.13 L239.12,108.13 L240.16,108.13 L241.19,108.13 L242.22,108.13 L243.25,108.13 L244.28,108.13 L245.31,108.13 L246.34,108.13 L247.37,108.13 L248.41,108.13 L249.44,108.13 L250.47,108.13 L251.50,108.13 L252.53,108.13 L253.56,108.13 L254.59,108.13 L255.62,108.13 L256.66,108.13 L257.69,108.13 L258.72,108.13 L259.75,108.13 L260.78,108.13 L261.81,108.13 L262.84,108.13 L263.87,108.13 L264.91,108.13 L265.94,108.13 L266.97,108.13 L268.00,108.13 L269.03,108.13 L270.06,108.13 L271.09,108.13 L272.12,108.13 L273.16,108.13 L274.19,108.13 L275.22,108.13 L276.25,108.13 L277.28,108.13 L278.31,108.13 L279.34,108.13 L280.37,108.13 L281.41,108.13 L282.44,108.13 L283.47,108.13 L284.50,108.13 L285.53,108.13 L286.56,108.13 L287.59,108.13 L288.62,108.13 L289.66,108.13 L290.69,108.13 L291.72,108.13 L292.75,108.13 L293.78,108.13 L294.81,108.13 L295.84,108.13 L296.87,108.13 L297.91,251.88 L298.94,251.88 L299.97,251.88 L301.00,251.88 L302.03,251.88 L303.06,251.88 L304.09,251.88 L305.12,251.88 L306.16,251.88 L307.19,251.88 L308.22,251.88 L309.25,251.88 L310.28,251.88 L311.31,251.88 L312.34,251.88 L313.37,251.88 L314.41,251.88 L315.44,251.88 L316.47,251.88 L317.50,251.88 L318.53,251.88 L319.56,251.88 L320.59,251.88 L321.62,251.88 L322.66,251.88 L323.69,251.88 L324.72,251.88 L325.75,251.88 L326.78,251.88 L327.81,251.88 L328.84,251.88 L329.87,251.88 L330.91,251.88 L331.94,251.88 L332.97,251.88 L334.00,251.88 L335.03,251.88 L336.06,251.88 L337.09,251.88 L338.12,251.88 L339.16,251.88 L340.19,251.88 L341.22,251.88 L342.25,251.88 L343.28,251.88 L344.31,251.88 L345.34,251.88 L346.37,251.88 L347.41,251.88 L348.44,251.88 L349.47,251.88 L350.50,251.88 L351.53,251.88 L352.56,251.88 L353.59,251.88 L354.62,251.88 L355.66,251.88 L356.69,251.88 L357.72,251.88 L358.75,251.88 L359.78,251.88 L360.81,251.88 L361.84,251.88 L362.87,251.88 L363.91,251.88 L364.94,251.88 L365.97,251.88 L367.00,251.88 L368.03,251.88 L369.06,251.88 L370.09,251.88 L371.12,251.88 L372.16,251.88 L373.19,251.88 L374.22,251.88 L375.25,251.88 L376.28,251.88 L377.31,251.88 L378.34,251.88 L379.37,251.88 L380.41,251.88 L381.44,251.88 L382.47,251.88 L383.50,251.88 L384.53,251.88 L385.56,251.88 L386.59,251.88 L387.62,251.88 L388.66,251.88 L389.69,251.88 L390.72,251.88 L391.75,251.88 L392.78,251.88 L393.81,251.88 L394.84,251.88 L395.87,251.88 L396.91,251.88 L397.94,251.88 L398.97,251.88 L400.00,251.88" fill="none" stroke="#1a4d8f" stroke-width="2.5" stroke-linejoin="round" stroke-linecap="round"/><text x="685" y="47" text-anchor="middle" fill="#1a1a2e" font-size="15" font-weight="700">冲激响应 h(t) = (ωc/π)·Sa(ωc·t)</text><rect x="520" y="65" width="330" height="230" fill="#ffffff" stroke="#d5d2c8" stroke-width="1"/><line x1="520.00" y1="65" x2="520.00" y2="295" stroke="#d5d2c8" stroke-opacity="0.45"/><text x="520.00" y="315" text-anchor="middle" fill="#6b6b7d" font-size="11">-4</text><line x1="602.50" y1="65" x2="602.50" y2="295" stroke="#d5d2c8" stroke-opacity="0.45"/><text x="602.50" y="315" text-anchor="middle" fill="#6b6b7d" font-size="11">-2</text><line x1="685.00" y1="65" x2="685.00" y2="295" stroke="#d5d2c8" stroke-opacity="0.45"/><text x="685.00" y="315" text-anchor="middle" fill="#6b6b7d" font-size="11">0</text><line x1="767.50" y1="65" x2="767.50" y2="295" stroke="#d5d2c8" stroke-opacity="0.45"/><text x="767.50" y="315" text-anchor="middle" fill="#6b6b7d" font-size="11">2</text><line x1="850.00" y1="65" x2="850.00" y2="295" stroke="#d5d2c8" stroke-opacity="0.45"/><text x="850.00" y="315" text-anchor="middle" fill="#6b6b7d" font-size="11">4</text><line x1="520" y1="245.71" x2="850" y2="245.71" stroke="#d5d2c8" stroke-opacity="0.35"/><text x="512" y="249.71" text-anchor="end" fill="#6b6b7d" font-size="11">0</text><line x1="520" y1="163.57" x2="850" y2="163.57" stroke="#d5d2c8" stroke-opacity="0.35"/><text x="512" y="167.57" text-anchor="end" fill="#6b6b7d" font-size="11">0.5</text><line x1="520" y1="81.43" x2="850" y2="81.43" stroke="#d5d2c8" stroke-opacity="0.35"/><text x="512" y="85.43" text-anchor="end" fill="#6b6b7d" font-size="11">1</text><line x1="520" y1="245.71" x2="850" y2="245.71" stroke="#1a1a2e" stroke-opacity="0.55"/><line x1="685.00" y1="65" x2="685.00" y2="295" stroke="#1a1a2e" stroke-opacity="0.25"/><text x="866" y="297" fill="#6b6b7d" font-size="13" font-style="italic">t</text><path d="M520.00,252.73 L520.83,253.42 L521.65,254.08 L522.48,254.73 L523.30,255.34 L524.13,255.93 L524.95,256.49 L525.77,257.01 L526.60,257.50 L527.42,257.95 L528.25,258.37 L529.08,258.74 L529.90,259.06 L530.73,259.35 L531.55,259.58 L532.38,259.77 L533.20,259.91 L534.02,260.00 L534.85,260.04 L535.68,260.03 L536.50,259.96 L537.33,259.85 L538.15,259.68 L538.98,259.46 L539.80,259.18 L540.63,258.86 L541.45,258.48 L542.27,258.05 L543.10,257.58 L543.93,257.05 L544.75,256.48 L545.58,255.86 L546.40,255.20 L547.23,254.49 L548.05,253.75 L548.88,252.96 L549.70,252.15 L550.52,251.29 L551.35,250.41 L552.18,249.50 L553.00,248.56 L553.83,247.60 L554.65,246.63 L555.48,245.63 L556.30,244.63 L557.13,243.61 L557.95,242.59 L558.78,241.57 L559.60,240.55 L560.43,239.54 L561.25,238.53 L562.08,237.54 L562.90,236.56 L563.73,235.60 L564.55,234.67 L565.38,233.76 L566.20,232.88 L567.03,232.04 L567.85,231.24 L568.68,230.47 L569.50,229.75 L570.33,229.08 L571.15,228.46 L571.98,227.89 L572.80,227.38 L573.63,226.93 L574.45,226.54 L575.28,226.21 L576.10,225.95 L576.93,225.76 L577.75,225.63 L578.58,225.58 L579.40,225.60 L580.23,225.69 L581.05,225.85 L581.88,226.09 L582.70,226.41 L583.53,226.80 L584.35,227.27 L585.18,227.81 L586.00,228.42 L586.83,229.11 L587.65,229.87 L588.48,230.70 L589.30,231.60 L590.13,232.56 L590.95,233.59 L591.78,234.69 L592.60,235.84 L593.43,237.05 L594.25,238.31 L595.08,239.62 L595.90,240.98 L596.73,242.38 L597.55,243.82 L598.38,245.30 L599.20,246.80 L600.03,248.33 L600.85,249.88 L601.68,251.44 L602.50,253.02 L603.33,254.60 L604.15,256.18 L604.98,257.76 L605.80,259.32 L606.63,260.87 L607.45,262.40 L608.28,263.89 L609.10,265.36 L609.93,266.78 L610.75,268.16 L611.58,269.49 L612.40,270.77 L613.23,271.98 L614.05,273.12 L614.88,274.19 L615.70,275.19 L616.53,276.10 L617.35,276.92 L618.18,277.64 L619.00,278.27 L619.83,278.80 L620.65,279.22 L621.48,279.53 L622.30,279.72 L623.13,279.79 L623.95,279.75 L624.78,279.57 L625.60,279.27 L626.43,278.84 L627.25,278.27 L628.08,277.57 L628.90,276.73 L629.73,275.75 L630.55,274.64 L631.38,273.38 L632.20,271.98 L633.03,270.45 L633.85,268.77 L634.68,266.95 L635.50,265.00 L636.33,262.91 L637.15,260.68 L637.98,258.32 L638.80,255.83 L639.63,253.21 L640.45,250.47 L641.28,247.61 L642.10,244.63 L642.93,241.54 L643.75,238.33 L644.58,235.03 L645.40,231.63 L646.23,228.13 L647.05,224.55 L647.88,220.88 L648.70,217.14 L649.53,213.33 L650.35,209.46 L651.18,205.54 L652.00,201.56 L652.83,197.55 L653.65,193.50 L654.48,189.42 L655.30,185.33 L656.13,181.23 L656.95,177.12 L657.78,173.02 L658.60,168.94 L659.43,164.87 L660.25,160.84 L661.08,156.84 L661.90,152.89 L662.73,148.99 L663.55,145.16 L664.38,141.39 L665.20,137.70 L666.03,134.10 L666.85,130.58 L667.68,127.17 L668.50,123.86 L669.33,120.67 L670.15,117.60 L670.98,114.66 L671.80,111.84 L672.63,109.17 L673.45,106.64 L674.28,104.26 L675.10,102.04 L675.93,99.98 L676.75,98.08 L677.58,96.35 L678.40,94.79 L679.23,93.40 L680.05,92.20 L680.88,91.18 L681.70,90.33 L682.53,89.68 L683.35,89.21 L684.18,88.93 L685.00,88.83 L685.83,88.93 L686.65,89.21 L687.48,89.68 L688.30,90.33 L689.13,91.18 L689.95,92.20 L690.78,93.40 L691.60,94.79 L692.43,96.35 L693.25,98.08 L694.08,99.98 L694.90,102.04 L695.73,104.26 L696.55,106.64 L697.38,109.17 L698.20,111.84 L699.03,114.66 L699.85,117.60 L700.68,120.67 L701.50,123.86 L702.33,127.17 L703.15,130.58 L703.98,134.10 L704.80,137.70 L705.63,141.39 L706.45,145.16 L707.28,148.99 L708.10,152.89 L708.93,156.84 L709.75,160.84 L710.58,164.87 L711.40,168.94 L712.23,173.02 L713.05,177.12 L713.88,181.23 L714.70,185.33 L715.53,189.42 L716.35,193.50 L717.18,197.55 L718.00,201.56 L718.83,205.54 L719.65,209.46 L720.48,213.33 L721.30,217.14 L722.13,220.88 L722.95,224.55 L723.78,228.13 L724.60,231.63 L725.43,235.03 L726.25,238.33 L727.08,241.54 L727.90,244.63 L728.73,247.61 L729.55,250.47 L730.38,253.21 L731.20,255.83 L732.03,258.32 L732.85,260.68 L733.68,262.91 L734.50,265.00 L735.33,266.95 L736.15,268.77 L736.98,270.45 L737.80,271.98 L738.63,273.38 L739.45,274.64 L740.28,275.75 L741.10,276.73 L741.93,277.57 L742.75,278.27 L743.58,278.84 L744.40,279.27 L745.23,279.57 L746.05,279.75 L746.88,279.79 L747.70,279.72 L748.53,279.53 L749.35,279.22 L750.18,278.80 L751.00,278.27 L751.83,277.64 L752.65,276.92 L753.48,276.10 L754.30,275.19 L755.13,274.19 L755.95,273.12 L756.78,271.98 L757.60,270.77 L758.43,269.49 L759.25,268.16 L760.08,266.78 L760.90,265.36 L761.73,263.89 L762.55,262.40 L763.38,260.87 L764.20,259.32 L765.03,257.76 L765.85,256.18 L766.68,254.60 L767.50,253.02 L768.33,251.44 L769.15,249.88 L769.98,248.33 L770.80,246.80 L771.63,245.30 L772.45,243.82 L773.28,242.38 L774.10,240.98 L774.93,239.62 L775.75,238.31 L776.58,237.05 L777.40,235.84 L778.23,234.69 L779.05,233.59 L779.88,232.56 L780.70,231.60 L781.53,230.70 L782.35,229.87 L783.18,229.11 L784.00,228.42 L784.83,227.81 L785.65,227.27 L786.48,226.80 L787.30,226.41 L788.13,226.09 L788.95,225.85 L789.78,225.69 L790.60,225.60 L791.43,225.58 L792.25,225.63 L793.08,225.76 L793.90,225.95 L794.73,226.21 L795.55,226.54 L796.38,226.93 L797.20,227.38 L798.03,227.89 L798.85,228.46 L799.68,229.08 L800.50,229.75 L801.33,230.47 L802.15,231.24 L802.98,232.04 L803.80,232.88 L804.63,233.76 L805.45,234.67 L806.28,235.60 L807.10,236.56 L807.93,237.54 L808.75,238.53 L809.58,239.54 L810.40,240.55 L811.23,241.57 L812.05,242.59 L812.88,243.61 L813.70,244.63 L814.53,245.63 L815.35,246.63 L816.18,247.60 L817.00,248.56 L817.83,249.50 L818.65,250.41 L819.48,251.29 L820.30,252.15 L821.13,252.96 L821.95,253.75 L822.78,254.49 L823.60,255.20 L824.43,255.86 L825.25,256.48 L826.08,257.05 L826.90,257.58 L827.73,258.05 L828.55,258.48 L829.38,258.86 L830.20,259.18 L831.03,259.46 L831.85,259.68 L832.68,259.85 L833.50,259.96 L834.33,260.03 L835.15,260.04 L835.98,260.00 L836.80,259.91 L837.63,259.77 L838.45,259.58 L839.28,259.35 L840.10,259.06 L840.93,258.74 L841.75,258.37 L842.58,257.95 L843.40,257.50 L844.23,257.01 L845.05,256.49 L845.88,255.93 L846.70,255.34 L847.53,254.73 L848.35,254.08 L849.18,253.42 L850.00,252.73" fill="none" stroke="#b8451a" stroke-width="2.5" stroke-linejoin="round" stroke-linecap="round"/>
</svg>
