<?xml version="1.0" encoding="UTF-8"?>
<svg xmlns="http://www.w3.org/2000/svg" viewBox="0 0 920 340" width="920" height="340" role="img">
<style>text{font-family:InstrumentSans, -apple-system, BlinkMacSystemFont, 'PingFang SC', 'Microsoft YaHei', sans-serif}</style>
<rect width="920" height="340" rx="8" fill="#fbfaf6"/>
<text x="235" y="47" text-anchor="middle" fill="#1a1a2e" font-size="15" font-weight="700">基带频谱 X(jω)</text><rect x="70" y="65" width="330" height="220" fill="#ffffff" stroke="#d5d2c8" stroke-width="1"/><line x1="70.00" y1="65" x2="70.00" y2="285" stroke="#d5d2c8" stroke-opacity="0.45"/><text x="70.00" y="305" text-anchor="middle" fill="#6b6b7d" font-size="11">-4</text><line x1="152.50" y1="65" x2="152.50" y2="285" stroke="#d5d2c8" stroke-opacity="0.45"/><text x="152.50" y="305" text-anchor="middle" fill="#6b6b7d" font-size="11">-2</text><line x1="235.00" y1="65" x2="235.00" y2="285" stroke="#d5d2c8" stroke-opacity="0.45"/><text x="235.00" y="305" text-anchor="middle" fill="#6b6b7d" font-size="11">0</text><line x1="317.50" y1="65" x2="317.50" y2="285" stroke="#d5d2c8" stroke-opacity="0.45"/><text x="317.50" y="305" text-anchor="middle" fill="#6b6b7d" font-size="11">2</text><line x1="400.00" y1="65" x2="400.00" y2="285" stroke="#d5d2c8" stroke-opacity="0.45"/><text x="400.00" y="305" text-anchor="middle" fill="#6b6b7d" font-size="11">4</text><line x1="70" y1="285.00" x2="400" y2="285.00" stroke="#d5d2c8" stroke-opacity="0.35"/><text x="62" y="289.00" text-anchor="end" fill="#6b6b7d" font-size="11">-0.2</text><line x1="70" y1="253.57" x2="400" y2="253.57" stroke="#d5d2c8" stroke-opacity="0.35"/><text x="62" y="257.57" text-anchor="end" fill="#6b6b7d" font-size="11">0</text><line x1="70" y1="222.14" x2="400" y2="222.14" stroke="#d5d2c8" stroke-opacity="0.35"/><text x="62" y="226.14" text-anchor="end" fill="#6b6b7d" font-size="11">0.2</text><line x1="70" y1="190.71" x2="400" y2="190.71" stroke="#d5d2c8" stroke-opacity="0.35"/><text x="62" y="194.71" text-anchor="end" fill="#6b6b7d" font-size="11">0.4</text><line x1="70" y1="159.29" x2="400" y2="159.29" stroke="#d5d2c8" stroke-opacity="0.35"/><text x="62" y="163.29" text-anchor="end" fill="#6b6b7d" font-size="11">0.6</text><line x1="70" y1="127.86" x2="400" y2="127.86" stroke="#d5d2c8" stroke-opacity="0.35"/><text x="62" y="131.86" text-anchor="end" fill="#6b6b7d" font-size="11">0.8</text><line x1="70" y1="96.43" x2="400" y2="96.43" stroke="#d5d2c8" stroke-opacity="0.35"/><text x="62" y="100.43" text-anchor="end" fill="#6b6b7d" font-size="11">1</text><line x1="70" y1="65.00" x2="400" y2="65.00" stroke="#d5d2c8" stroke-opacity="0.35"/><text x="62" y="69.00" text-anchor="end" fill="#6b6b7d" font-size="11">1.2</text><line x1="70" y1="253.57" x2="400" y2="253.57" stroke="#1a1a2e" stroke-opacity="0.55"/><line x1="235.00" y1="65" x2="235.00" y2="285" stroke="#1a1a2e" stroke-opacity="0.25"/><text x="416" y="287" fill="#6b6b7d" font-size="13" font-style="italic">ω</text><path d="M70.00,253.57 L70.00,253.57 L71.24,253.57 L72.47,253.57 L73.71,253.57 L74.95,253.57 L76.19,253.57 L77.42,253.57 L78.66,253.57 L79.90,253.57 L81.14,253.57 L82.37,253.57 L83.61,253.57 L84.85,253.57 L86.09,253.57 L87.32,253.57 L88.56,253.57 L89.80,253.57 L91.04,253.57 L92.27,253.57 L93.51,253.57 L94.75,253.57 L95.99,253.57 L97.22,253.57 L98.46,253.57 L99.70,253.57 L100.94,253.57 L102.17,253.57 L103.41,253.57 L104.65,253.57 L105.89,253.57 L107.12,253.57 L108.36,253.57 L109.60,253.57 L110.84,253.57 L112.07,253.57 L113.31,253.57 L114.55,253.57 L115.79,253.57 L117.02,253.57 L118.26,253.57 L119.50,253.57 L120.74,253.57 L121.97,253.57 L123.21,253.57 L124.45,253.57 L125.69,253.57 L126.92,253.57 L128.16,253.57 L129.40,253.57 L130.64,253.57 L131.87,253.57 L133.11,253.57 L134.35,253.57 L135.59,253.57 L136.82,253.57 L138.06,253.57 L139.30,253.57 L140.54,253.57 L141.77,253.57 L143.01,253.57 L144.25,253.57 L145.49,253.57 L146.72,253.57 L147.96,253.57 L149.20,253.57 L150.44,253.57 L151.67,253.57 L152.91,252.79 L154.15,250.43 L155.39,248.07 L156.62,245.71 L157.86,243.36 L159.10,241.00 L160.34,238.64 L161.57,236.29 L162.81,233.93 L164.05,231.57 L165.29,229.21 L166.52,226.86 L167.76,224.50 L169.00,222.14 L170.24,219.79 L171.47,217.43 L172.71,215.07 L173.95,212.71 L175.19,210.36 L176.42,208.00 L177.66,205.64 L178.90,203.29 L180.14,200.93 L181.37,198.57 L182.61,196.21 L183.85,193.86 L185.09,191.50 L186.32,189.14 L187.56,186.79 L188.80,184.43 L190.04,182.07 L191.27,179.71 L192.51,177.36 L193.75,175.00 L194.99,172.64 L196.22,170.29 L197.46,167.93 L198.70,165.57 L199.94,163.21 L201.17,160.86 L202.41,158.50 L203.65,156.14 L204.89,153.79 L206.12,151.43 L207.36,149.07 L208.60,146.71 L209.84,144.36 L211.07,142.00 L212.31,139.64 L213.55,137.29 L214.79,134.93 L216.02,132.57 L217.26,130.21 L218.50,127.86 L219.74,125.50 L220.97,123.14 L222.21,120.79 L223.45,118.43 L224.69,116.07 L225.92,113.71 L227.16,111.36 L228.40,109.00 L229.64,106.64 L230.87,104.29 L232.11,101.93 L233.35,99.57 L234.59,97.21 L235.82,98.00 L237.06,100.36 L238.30,102.71 L239.54,105.07 L240.77,107.43 L242.01,109.79 L243.25,112.14 L244.49,114.50 L245.72,116.86 L246.96,119.21 L248.20,121.57 L249.44,123.93 L250.67,126.29 L251.91,128.64 L253.15,131.00 L254.39,133.36 L255.62,135.71 L256.86,138.07 L258.10,140.43 L259.34,142.79 L260.57,145.14 L261.81,147.50 L263.05,149.86 L264.29,152.21 L265.52,154.57 L266.76,156.93 L268.00,159.29 L269.24,161.64 L270.47,164.00 L271.71,166.36 L272.95,168.71 L274.19,171.07 L275.42,173.43 L276.66,175.79 L277.90,178.14 L279.14,180.50 L280.37,182.86 L281.61,185.21 L282.85,187.57 L284.09,189.93 L285.32,192.29 L286.56,194.64 L287.80,197.00 L289.04,199.36 L290.27,201.71 L291.51,204.07 L292.75,206.43 L293.99,208.79 L295.22,211.14 L296.46,213.50 L297.70,215.86 L298.94,218.21 L300.17,220.57 L301.41,222.93 L302.65,225.29 L303.89,227.64 L305.12,230.00 L306.36,232.36 L307.60,234.71 L308.84,237.07 L310.07,239.43 L311.31,241.79 L312.55,244.14 L313.79,246.50 L315.02,248.86 L316.26,251.21 L317.50,253.57 L318.74,253.57 L319.97,253.57 L321.21,253.57 L322.45,253.57 L323.69,253.57 L324.92,253.57 L326.16,253.57 L327.40,253.57 L328.64,253.57 L329.87,253.57 L331.11,253.57 L332.35,253.57 L333.59,253.57 L334.82,253.57 L336.06,253.57 L337.30,253.57 L338.54,253.57 L339.77,253.57 L341.01,253.57 L342.25,253.57 L343.49,253.57 L344.72,253.57 L345.96,253.57 L347.20,253.57 L348.44,253.57 L349.67,253.57 L350.91,253.57 L352.15,253.57 L353.39,253.57 L354.62,253.57 L355.86,253.57 L357.10,253.57 L358.34,253.57 L359.57,253.57 L360.81,253.57 L362.05,253.57 L363.29,253.57 L364.52,253.57 L365.76,253.57 L367.00,253.57 L368.24,253.57 L369.47,253.57 L370.71,253.57 L371.95,253.57 L373.19,253.57 L374.42,253.57 L375.66,253.57 L376.90,253.57 L378.14,253.57 L379.37,253.57 L380.61,253.57 L381.85,253.57 L383.09,253.57 L384.32,253.57 L385.56,253.57 L386.80,253.57 L388.04,253.57 L389.27,253.57 L390.51,253.57 L391.75,253.57 L392.99,253.57 L394.22,253.57 L395.46,253.57 L396.70,253.57 L397.94,253.57 L399.17,253.57 L399.17,253.57 Z" fill="#1a4d8f" fill-opacity="0.15"/><path d="M70.00,253.57 L71.24,253.57 L72.47,253.57 L73.71,253.57 L74.95,253.57 L76.19,253.57 L77.42,253.57 L78.66,253.57 L79.90,253.57 L81.14,253.57 L82.37,253.57 L83.61,253.57 L84.85,253.57 L86.09,253.57 L87.32,253.57 L88.56,253.57 L89.80,253.57 L91.04,253.57 L92.27,253.57 L93.51,253.57 L94.75,253.57 L95.99,253.57 L97.22,253.57 L98.46,253.57 L99.70,253.57 L100.94,253.57 L102.17,253.57 L103.41,253.57 L104.65,253.57 L105.89,253.57 L107.12,253.57 L108.36,253.57 L109.60,253.57 L110.84,253.57 L112.07,253.57 L113.31,253.57 L114.55,253.57 L115.79,253.57 L117.02,253.57 L118.26,253.57 L119.50,253.57 L120.74,253.57 L121.97,253.57 L123.21,253.57 L124.45,253.57 L125.69,253.57 L126.92,253.57 L128.16,253.57 L129.40,253.57 L130.64,253.57 L131.87,253.57 L133.11,253.57 L134.35,253.57 L135.59,253.57 L136.82,253.57 L138.06,253.57 L139.30,253.57 L140.54,253.57 L141.77,253.57 L143.01,253.57 L144.25,253.57 L145.49,253.57 L146.72,253.57 L147.96,253.57 L149.20,253.57 L150.44,253.57 L151.67,253.57 L152.91,252.79 L154.15,250.43 L155.39,248.07 L156.62,245.71 L157.86,243.36 L159.10,241.00 L160.34,238.64 L161.57,236.29 L162.81,233.93 L164.05,231.57 L165.29,229.21 L166.52,226.86 L167.76,224.50 L169.00,222.14 L170.24,219.79 L171.47,217.43 L172.71,215.07 L173.95,212.71 L175.19,210.36 L176.42,208.00 L177.66,205.64 L178.90,203.29 L180.14,200.93 L181.37,198.57 L182.61,196.21 L183.85,193.86 L185.09,191.50 L186.32,189.14 L187.56,186.79 L188.80,184.43 L190.04,182.07 L191.27,179.71 L192.51,177.36 L193.75,175.00 L194.99,172.64 L196.22,170.29 L197.46,167.93 L198.70,165.57 L199.94,163.21 L201.17,160.86 L202.41,158.50 L203.65,156.14 L204.89,153.79 L206.12,151.43 L207.36,149.07 L208.60,146.71 L209.84,144.36 L211.07,142.00 L212.31,139.64 L213.55,137.29 L214.79,134.93 L216.02,132.57 L217.26,130.21 L218.50,127.86 L219.74,125.50 L220.97,123.14 L222.21,120.79 L223.45,118.43 L224.69,116.07 L225.92,113.71 L227.16,111.36 L228.40,109.00 L229.64,106.64 L230.87,104.29 L232.11,101.93 L233.35,99.57 L234.59,97.21 L235.82,98.00 L237.06,100.36 L238.30,102.71 L239.54,105.07 L240.77,107.43 L242.01,109.79 L243.25,112.14 L244.49,114.50 L245.72,116.86 L246.96,119.21 L248.20,121.57 L249.44,123.93 L250.67,126.29 L251.91,128.64 L253.15,131.00 L254.39,133.36 L255.62,135.71 L256.86,138.07 L258.10,140.43 L259.34,142.79 L260.57,145.14 L261.81,147.50 L263.05,149.86 L264.29,152.21 L265.52,154.57 L266.76,156.93 L268.00,159.29 L269.24,161.64 L270.47,164.00 L271.71,166.36 L272.95,168.71 L274.19,171.07 L275.42,173.43 L276.66,175.79 L277.90,178.14 L279.14,180.50 L280.37,182.86 L281.61,185.21 L282.85,187.57 L284.09,189.93 L285.32,192.29 L286.56,194.64 L287.80,197.00 L289.04,199.36 L290.27,201.71 L291.51,204.07 L292.75,206.43 L293.99,208.79 L295.22,211.14 L296.46,213.50 L297.70,215.86 L298.94,218.21 L300.17,220.57 L301.41,222.93 L302.65,225.29 L303.89,227.64 L305.12,230.00 L306.36,232.36 L307.60,234.71 L308.84,237.07 L310.07,239.43 L311.31,241.79 L312.55,244.14 L313.79,246.50 L315.02,248.86 L316.26,251.21 L317.50,253.57 L318.74,253.57 L319.97,253.57 L321.21,253.57 L322.45,253.57 L323.69,253.57 L324.92,253.57 L326.16,253.57 L327.40,253.57 L328.64,253.57 L329.87,253.57 L331.11,253.57 L332.35,253.57 L333.59,253.57 L334.82,253.57 L336.06,253.57 L337.30,253.57 L338.54,253.57 L339.77,253.57 L341.01,253.57 L342.25,253.57 L343.49,253.57 L344.72,253.57 L345.96,253.57 L347.20,253.57 L348.44,253.57 L349.67,253.57 L350.91,253.57 L352.15,253.57 L353.39,253.57 L354.62,253.57 L355.86,253.57 L357.10,253.57 L358.34,253.57 L359.57,253.57 L360.81,253.57 L362.05,253.57 L363.29,253.57 L364.52,253.57 L365.76,253.57 L367.00,253.57 L368.24,253.57 L369.47,253.57 L370.71,253.57 L371.95,253.57 L373.19,253.57 L374.42,253.57 L375.66,253.57 L376.90,253.57 L378.14,253.57 L379.37,253.57 L380.61,253.57 L381.85,253.57 L383.09,253.57 L384.32,253.57 L385.56,253.57 L386.80,253.57 L388.04,253.57 L389.27,253.57 L390.51,253.57 L391.75,253.57 L392.99,253.57 L394.22,253.57 L395.46,253.57 L396.70,253.57 L397.94,253.57 L399.17,253.57" fill="none" stroke="#1a4d8f" stroke-width="2.5" stroke-linejoin="round" stroke-linecap="round"/><text x="685" y="47" text-anchor="middle" fill="#1a1a2e" font-size="15" font-weight="700">调制后频谱 Y(jω)</text><rect x="520" y="65" width="330" height="220" fill="#ffffff" stroke="#d5d2c8" stroke-width="1"/><line x1="567.14" y1="65" x2="567.14" y2="285" stroke="#d5d2c8" stroke-opacity="0.45"/><text x="567.14" y="305" text-anchor="middle" fill="#6b6b7d" font-size="11">-10</text><line x1="626.07" y1="65" x2="626.07" y2="285" stroke="#d5d2c8" stroke-opacity="0.45"/><text x="626.07" y="305" text-anchor="middle" fill="#6b6b7d" font-size="11">-5</text><line x1="685.00" y1="65" x2="685.00" y2="285" stroke="#d5d2c8" stroke-opacity="0.45"/><text x="685.00" y="305" text-anchor="middle" fill="#6b6b7d" font-size="11">0</text><line x1="743.93" y1="65" x2="743.93" y2="285" stroke="#d5d2c8" stroke-opacity="0.45"/><text x="743.93" y="305" text-anchor="middle" fill="#6b6b7d" font-size="11">5</text><line x1="802.86" y1="65" x2="802.86" y2="285" stroke="#d5d2c8" stroke-opacity="0.45"/><text x="802.86" y="305" text-anchor="middle" fill="#6b6b7d" font-size="11">10</text><line x1="861.79" y1="65" x2="861.79" y2="285" stroke="#d5d2c8" stroke-opacity="0.45"/><text x="861.79" y="305" text-anchor="middle" fill="#6b6b7d" font-size="11">15</text><line x1="520" y1="285.00" x2="850" y2="285.00" stroke="#d5d2c8" stroke-opacity="0.35"/><text x="512" y="289.00" text-anchor="end" fill="#6b6b7d" font-size="11">-0.2</text><line x1="520" y1="236.11" x2="850" y2="236.11" stroke="#d5d2c8" stroke-opacity="0.35"/><text x="512" y="240.11" text-anchor="end" fill="#6b6b7d" font-size="11">0</text><line x1="520" y1="187.22" x2="850" y2="187.22" stroke="#d5d2c8" stroke-opacity="0.35"/><text x="512" y="191.22" text-anchor="end" fill="#6b6b7d" font-size="11">0.2</text><line x1="520" y1="138.33" x2="850" y2="138.33" stroke="#d5d2c8" stroke-opacity="0.35"/><text x="512" y="142.33" text-anchor="end" fill="#6b6b7d" font-size="11">0.4</text><line x1="520" y1="89.44" x2="850" y2="89.44" stroke="#d5d2c8" stroke-opacity="0.35"/><text x="512" y="93.44" text-anchor="end" fill="#6b6b7d" font-size="11">0.6</text><line x1="520" y1="236.11" x2="850" y2="236.11" stroke="#1a1a2e" stroke-opacity="0.55"/><line x1="685.00" y1="65" x2="685.00" y2="285" stroke="#1a1a2e" stroke-opacity="0.25"/><text x="866" y="287" fill="#6b6b7d" font-size="13" font-style="italic">ω</text><path d="M520.00,236.11 L520.00,236.11 L520.35,236.11 L520.71,236.11 L521.06,236.11 L521.41,236.11 L521.77,236.11 L522.12,236.11 L522.47,236.11 L522.83,236.11 L523.18,236.11 L523.54,236.11 L523.89,236.11 L524.24,236.11 L524.60,236.11 L524.95,236.11 L525.30,236.11 L525.66,236.11 L526.01,236.11 L526.36,236.11 L526.72,236.11 L527.07,236.11 L527.42,236.11 L527.78,236.11 L528.13,236.11 L528.49,236.11 L528.84,236.11 L529.19,236.11 L529.55,236.11 L529.90,236.11 L530.25,236.11 L530.61,236.11 L530.96,236.11 L531.31,236.11 L531.67,236.11 L532.02,236.11 L532.37,236.11 L532.73,236.11 L533.08,236.11 L533.44,236.11 L533.79,236.11 L534.14,236.11 L534.50,236.11 L534.85,236.11 L535.20,236.11 L535.56,236.11 L535.91,236.11 L536.26,236.11 L536.62,236.11 L536.97,236.11 L537.32,236.11 L537.68,236.11 L538.03,236.11 L538.39,236.11 L538.74,236.11 L539.09,236.11 L539.45,236.11 L539.80,236.11 L540.15,236.11 L540.51,236.11 L540.86,236.11 L541.21,236.11 L541.57,236.11 L541.92,236.11 L542.27,236.11 L542.63,236.11 L542.98,236.11 L543.34,236.11 L543.69,236.11 L544.04,236.11 L544.40,236.11 L544.75,236.11 L545.10,236.11 L545.46,236.11 L545.81,236.11 L546.16,236.11 L546.52,236.11 L546.87,236.11 L547.22,236.11 L547.58,236.11 L547.93,236.11 L548.29,236.11 L548.64,236.11 L548.99,236.11 L549.35,236.11 L549.70,236.11 L550.05,236.11 L550.41,236.11 L550.76,236.11 L551.11,236.11 L551.47,236.11 L551.82,236.11 L552.17,236.11 L552.53,236.11 L552.88,236.11 L553.24,236.11 L553.59,236.11 L553.94,236.11 L554.30,236.11 L554.65,236.11 L555.00,236.11 L555.36,236.11 L555.71,236.11 L556.06,236.11 L556.42,236.11 L556.77,236.11 L557.12,236.11 L557.48,236.11 L557.83,236.11 L558.19,236.11 L558.54,236.11 L558.89,236.11 L559.25,236.11 L559.60,236.11 L559.95,236.11 L560.31,236.11 L560.66,236.11 L561.01,236.11 L561.37,236.11 L561.72,236.11 L562.07,236.11 L562.43,236.11 L562.78,236.11 L563.14,236.11 L563.49,236.11 L563.84,236.11 L564.20,236.11 L564.55,236.11 L564.90,236.11 L565.26,236.11 L565.61,236.11 L565.96,236.11 L566.32,236.11 L566.67,236.11 L567.02,236.11 L567.38,236.11 L567.73,236.11 L568.09,236.11 L568.44,236.11 L568.79,236.11 L569.15,236.11 L569.50,236.11 L569.85,236.11 L570.21,236.11 L570.56,236.11 L570.91,236.11 L571.27,236.11 L571.62,236.11 L571.97,236.11 L572.33,236.11 L572.68,236.11 L573.04,236.11 L573.39,236.11 L573.74,236.11 L574.10,236.11 L574.45,236.11 L574.80,236.11 L575.16,236.11 L575.51,236.11 L575.86,236.11 L576.22,236.11 L576.57,236.11 L576.92,236.11 L577.28,236.11 L577.63,236.11 L577.99,236.11 L578.34,236.11 L578.69,236.11 L579.05,236.11 L579.40,236.11 L579.75,236.11 L580.11,236.11 L580.46,236.11 L580.81,236.11 L581.17,236.11 L581.52,236.11 L581.87,236.11 L582.23,236.11 L582.58,236.11 L582.94,236.11 L583.29,236.11 L583.64,236.11 L584.00,236.11 L584.35,236.11 L584.70,236.11 L585.06,236.11 L585.41,236.11 L585.76,236.11 L586.12,236.11 L586.47,236.11 L586.82,236.11 L587.18,236.11 L587.53,236.11 L587.89,236.11 L588.24,236.11 L588.59,236.11 L588.95,236.11 L589.30,236.11 L589.65,236.11 L590.01,236.11 L590.36,236.11 L590.71,236.11 L591.07,234.28 L591.42,232.44 L591.77,230.61 L592.13,228.78 L592.48,226.94 L592.84,225.11 L593.19,223.28 L593.54,221.44 L593.90,219.61 L594.25,217.78 L594.60,215.94 L594.96,214.11 L595.31,212.28 L595.66,210.44 L596.02,208.61 L596.37,206.78 L596.72,204.94 L597.08,203.11 L597.43,201.28 L597.79,199.44 L598.14,197.61 L598.49,195.78 L598.85,193.94 L599.20,192.11 L599.55,190.28 L599.91,188.44 L600.26,186.61 L600.61,184.78 L600.97,182.94 L601.32,181.11 L601.67,179.28 L602.03,177.44 L602.38,175.61 L602.74,173.78 L603.09,171.94 L603.44,170.11 L603.80,168.28 L604.15,166.44 L604.50,164.61 L604.86,162.78 L605.21,160.94 L605.56,159.11 L605.92,157.28 L606.27,155.44 L606.62,153.61 L606.98,151.78 L607.33,149.94 L607.69,148.11 L608.04,146.28 L608.39,144.44 L608.75,142.61 L609.10,140.78 L609.45,138.94 L609.81,137.11 L610.16,135.28 L610.51,133.44 L610.87,131.61 L611.22,129.78 L611.57,127.94 L611.93,126.11 L612.28,124.28 L612.64,122.44 L612.99,120.61 L613.34,118.78 L613.70,116.94 L614.05,115.11 L614.40,114.50 L614.76,116.33 L615.11,118.17 L615.46,120.00 L615.82,121.83 L616.17,123.67 L616.52,125.50 L616.88,127.33 L617.23,129.17 L617.59,131.00 L617.94,132.83 L618.29,134.67 L618.65,136.50 L619.00,138.33 L619.35,140.17 L619.71,142.00 L620.06,143.83 L620.41,145.67 L620.77,147.50 L621.12,149.33 L621.47,151.17 L621.83,153.00 L622.18,154.83 L622.54,156.67 L622.89,158.50 L623.24,160.33 L623.60,162.17 L623.95,164.00 L624.30,165.83 L624.66,167.67 L625.01,169.50 L625.36,171.33 L625.72,173.17 L626.07,175.00 L626.42,176.83 L626.78,178.67 L627.13,180.50 L627.49,182.33 L627.84,184.17 L628.19,186.00 L628.55,187.83 L628.90,189.67 L629.25,191.50 L629.61,193.33 L629.96,195.17 L630.31,197.00 L630.67,198.83 L631.02,200.67 L631.37,202.50 L631.73,204.33 L632.08,206.17 L632.44,208.00 L632.79,209.83 L633.14,211.67 L633.50,213.50 L633.85,215.33 L634.20,217.17 L634.56,219.00 L634.91,220.83 L635.26,222.67 L635.62,224.50 L635.97,226.33 L636.32,228.17 L636.68,230.00 L637.03,231.83 L637.39,233.67 L637.74,235.50 L638.09,236.11 L638.45,236.11 L638.80,236.11 L639.15,236.11 L639.51,236.11 L639.86,236.11 L640.21,236.11 L640.57,236.11 L640.92,236.11 L641.27,236.11 L641.63,236.11 L641.98,236.11 L642.34,236.11 L642.69,236.11 L643.04,236.11 L643.40,236.11 L643.75,236.11 L644.10,236.11 L644.46,236.11 L644.81,236.11 L645.16,236.11 L645.52,236.11 L645.87,236.11 L646.22,236.11 L646.58,236.11 L646.93,236.11 L647.29,236.11 L647.64,236.11 L647.99,236.11 L648.35,236.11 L648.70,236.11 L649.05,236.11 L649.41,236.11 L649.76,236.11 L650.11,236.11 L650.47,236.11 L650.82,236.11 L651.17,236.11 L651.53,236.11 L651.88,236.11 L652.24,236.11 L652.59,236.11 L652.94,236.11 L653.30,236.11 L653.65,236.11 L654.00,236.11 L654.36,236.11 L654.71,236.11 L655.06,236.11 L655.42,236.11 L655.77,236.11 L656.12,236.11 L656.48,236.11 L656.83,236.11 L657.19,236.11 L657.54,236.11 L657.89,236.11 L658.25,236.11 L658.60,236.11 L658.95,236.11 L659.31,236.11 L659.66,236.11 L660.01,236.11 L660.37,236.11 L660.72,236.11 L661.07,236.11 L661.43,236.11 L661.78,236.11 L662.14,236.11 L662.49,236.11 L662.84,236.11 L663.20,236.11 L663.55,236.11 L663.90,236.11 L664.26,236.11 L664.61,236.11 L664.96,236.11 L665.32,236.11 L665.67,236.11 L666.02,236.11 L666.38,236.11 L666.73,236.11 L667.09,236.11 L667.44,236.11 L667.79,236.11 L668.15,236.11 L668.50,236.11 L668.85,236.11 L669.21,236.11 L669.56,236.11 L669.91,236.11 L670.27,236.11 L670.62,236.11 L670.97,236.11 L671.33,236.11 L671.68,236.11 L672.04,236.11 L672.39,236.11 L672.74,236.11 L673.10,236.11 L673.45,236.11 L673.80,236.11 L674.16,236.11 L674.51,236.11 L674.86,236.11 L675.22,236.11 L675.57,236.11 L675.92,236.11 L676.28,236.11 L676.63,236.11 L676.99,236.11 L677.34,236.11 L677.69,236.11 L678.05,236.11 L678.40,236.11 L678.75,236.11 L679.11,236.11 L679.46,236.11 L679.81,236.11 L680.17,236.11 L680.52,236.11 L680.87,236.11 L681.23,236.11 L681.58,236.11 L681.94,236.11 L682.29,236.11 L682.64,236.11 L683.00,236.11 L683.35,236.11 L683.70,236.11 L684.06,236.11 L684.41,236.11 L684.76,236.11 L685.12,236.11 L685.47,236.11 L685.82,236.11 L686.18,236.11 L686.53,236.11 L686.89,236.11 L687.24,236.11 L687.59,236.11 L687.95,236.11 L688.30,236.11 L688.65,236.11 L689.01,236.11 L689.36,236.11 L689.71,236.11 L690.07,236.11 L690.42,236.11 L690.77,236.11 L691.13,236.11 L691.48,236.11 L691.84,236.11 L692.19,236.11 L692.54,236.11 L692.90,236.11 L693.25,236.11 L693.60,236.11 L693.96,236.11 L694.31,236.11 L694.66,236.11 L695.02,236.11 L695.37,236.11 L695.72,236.11 L696.08,236.11 L696.43,236.11 L696.79,236.11 L697.14,236.11 L697.49,236.11 L697.85,236.11 L698.20,236.11 L698.55,236.11 L698.91,236.11 L699.26,236.11 L699.61,236.11 L699.97,236.11 L700.32,236.11 L700.67,236.11 L701.03,236.11 L701.38,236.11 L701.74,236.11 L702.09,236.11 L702.44,236.11 L702.80,236.11 L703.15,236.11 L703.50,236.11 L703.86,236.11 L704.21,236.11 L704.56,236.11 L704.92,236.11 L705.27,236.11 L705.62,236.11 L705.98,236.11 L706.33,236.11 L706.69,236.11 L707.04,236.11 L707.39,236.11 L707.75,236.11 L708.10,236.11 L708.45,236.11 L708.81,236.11 L709.16,236.11 L709.51,236.11 L709.87,236.11 L710.22,236.11 L710.57,236.11 L710.93,236.11 L711.28,236.11 L711.64,236.11 L711.99,236.11 L712.34,236.11 L712.70,236.11 L713.05,236.11 L713.40,236.11 L713.76,236.11 L714.11,236.11 L714.46,236.11 L714.82,236.11 L715.17,236.11 L715.52,236.11 L715.88,236.11 L716.23,236.11 L716.59,236.11 L716.94,236.11 L717.29,236.11 L717.65,236.11 L718.00,236.11 L718.35,236.11 L718.71,236.11 L719.06,236.11 L719.41,236.11 L719.77,236.11 L720.12,236.11 L720.47,236.11 L720.83,236.11 L721.18,236.11 L721.54,236.11 L721.89,236.11 L722.24,236.11 L722.60,236.11 L722.95,236.11 L723.30,236.11 L723.66,236.11 L724.01,236.11 L724.36,236.11 L724.72,236.11 L725.07,236.11 L725.42,236.11 L725.78,236.11 L726.13,236.11 L726.49,236.11 L726.84,236.11 L727.19,236.11 L727.55,236.11 L727.90,236.11 L728.25,236.11 L728.61,236.11 L728.96,236.11 L729.31,236.11 L729.67,236.11 L730.02,236.11 L730.37,236.11 L730.73,236.11 L731.08,236.11 L731.44,236.11 L731.79,236.11 L732.14,236.11 L732.50,234.28 L732.85,232.44 L733.20,230.61 L733.56,228.78 L733.91,226.94 L734.26,225.11 L734.62,223.28 L734.97,221.44 L735.32,219.61 L735.68,217.78 L736.03,215.94 L736.39,214.11 L736.74,212.28 L737.09,210.44 L737.45,208.61 L737.80,206.78 L738.15,204.94 L738.51,203.11 L738.86,201.28 L739.21,199.44 L739.57,197.61 L739.92,195.78 L740.27,193.94 L740.63,192.11 L740.98,190.28 L741.34,188.44 L741.69,186.61 L742.04,184.78 L742.40,182.94 L742.75,181.11 L743.10,179.28 L743.46,177.44 L743.81,175.61 L744.16,173.78 L744.52,171.94 L744.87,170.11 L745.22,168.28 L745.58,166.44 L745.93,164.61 L746.29,162.78 L746.64,160.94 L746.99,159.11 L747.35,157.28 L747.70,155.44 L748.05,153.61 L748.41,151.78 L748.76,149.94 L749.11,148.11 L749.47,146.28 L749.82,144.44 L750.17,142.61 L750.53,140.78 L750.88,138.94 L751.24,137.11 L751.59,135.28 L751.94,133.44 L752.30,131.61 L752.65,129.78 L753.00,127.94 L753.36,126.11 L753.71,124.28 L754.06,122.44 L754.42,120.61 L754.77,118.78 L755.12,116.94 L755.48,115.11 L755.83,114.50 L756.19,116.33 L756.54,118.17 L756.89,120.00 L757.25,121.83 L757.60,123.67 L757.95,125.50 L758.31,127.33 L758.66,129.17 L759.01,131.00 L759.37,132.83 L759.72,134.67 L760.07,136.50 L760.43,138.33 L760.78,140.17 L761.14,142.00 L761.49,143.83 L761.84,145.67 L762.20,147.50 L762.55,149.33 L762.90,151.17 L763.26,153.00 L763.61,154.83 L763.96,156.67 L764.32,158.50 L764.67,160.33 L765.02,162.17 L765.38,164.00 L765.73,165.83 L766.09,167.67 L766.44,169.50 L766.79,171.33 L767.15,173.17 L767.50,175.00 L767.85,176.83 L768.21,178.67 L768.56,180.50 L768.91,182.33 L769.27,184.17 L769.62,186.00 L769.97,187.83 L770.33,189.67 L770.68,191.50 L771.04,193.33 L771.39,195.17 L771.74,197.00 L772.10,198.83 L772.45,200.67 L772.80,202.50 L773.16,204.33 L773.51,206.17 L773.86,208.00 L774.22,209.83 L774.57,211.67 L774.92,213.50 L775.28,215.33 L775.63,217.17 L775.99,219.00 L776.34,220.83 L776.69,222.67 L777.05,224.50 L777.40,226.33 L777.75,228.17 L778.11,230.00 L778.46,231.83 L778.81,233.67 L779.17,235.50 L779.52,236.11 L779.87,236.11 L780.23,236.11 L780.58,236.11 L780.94,236.11 L781.29,236.11 L781.64,236.11 L782.00,236.11 L782.35,236.11 L782.70,236.11 L783.06,236.11 L783.41,236.11 L783.76,236.11 L784.12,236.11 L784.47,236.11 L784.82,236.11 L785.18,236.11 L785.53,236.11 L785.89,236.11 L786.24,236.11 L786.59,236.11 L786.95,236.11 L787.30,236.11 L787.65,236.11 L788.01,236.11 L788.36,236.11 L788.71,236.11 L789.07,236.11 L789.42,236.11 L789.77,236.11 L790.13,236.11 L790.48,236.11 L790.84,236.11 L791.19,236.11 L791.54,236.11 L791.90,236.11 L792.25,236.11 L792.60,236.11 L792.96,236.11 L793.31,236.11 L793.66,236.11 L794.02,236.11 L794.37,236.11 L794.72,236.11 L795.08,236.11 L795.43,236.11 L795.79,236.11 L796.14,236.11 L796.49,236.11 L796.85,236.11 L797.20,236.11 L797.55,236.11 L797.91,236.11 L798.26,236.11 L798.61,236.11 L798.97,236.11 L799.32,236.11 L799.67,236.11 L800.03,236.11 L800.38,236.11 L800.74,236.11 L801.09,236.11 L801.44,236.11 L801.80,236.11 L802.15,236.11 L802.50,236.11 L802.86,236.11 L803.21,236.11 L803.56,236.11 L803.92,236.11 L804.27,236.11 L804.62,236.11 L804.98,236.11 L805.33,236.11 L805.69,236.11 L806.04,236.11 L806.39,236.11 L806.75,236.11 L807.10,236.11 L807.45,236.11 L807.81,236.11 L808.16,236.11 L808.51,236.11 L808.87,236.11 L809.22,236.11 L809.57,236.11 L809.93,236.11 L810.28,236.11 L810.64,236.11 L810.99,236.11 L811.34,236.11 L811.70,236.11 L812.05,236.11 L812.40,236.11 L812.76,236.11 L813.11,236.11 L813.46,236.11 L813.82,236.11 L814.17,236.11 L814.52,236.11 L814.88,236.11 L815.23,236.11 L815.59,236.11 L815.94,236.11 L816.29,236.11 L816.65,236.11 L817.00,236.11 L817.35,236.11 L817.71,236.11 L818.06,236.11 L818.41,236.11 L818.77,236.11 L819.12,236.11 L819.47,236.11 L819.83,236.11 L820.18,236.11 L820.54,236.11 L820.89,236.11 L821.24,236.11 L821.60,236.11 L821.95,236.11 L822.30,236.11 L822.66,236.11 L823.01,236.11 L823.36,236.11 L823.72,236.11 L824.07,236.11 L824.42,236.11 L824.78,236.11 L825.13,236.11 L825.49,236.11 L825.84,236.11 L826.19,236.11 L826.55,236.11 L826.90,236.11 L827.25,236.11 L827.61,236.11 L827.96,236.11 L828.31,236.11 L828.67,236.11 L829.02,236.11 L829.37,236.11 L829.73,236.11 L830.08,236.11 L830.44,236.11 L830.79,236.11 L831.14,236.11 L831.50,236.11 L831.85,236.11 L832.20,236.11 L832.56,236.11 L832.91,236.11 L833.26,236.11 L833.62,236.11 L833.97,236.11 L834.32,236.11 L834.68,236.11 L835.03,236.11 L835.39,236.11 L835.74,236.11 L836.09,236.11 L836.45,236.11 L836.80,236.11 L837.15,236.11 L837.51,236.11 L837.86,236.11 L838.21,236.11 L838.57,236.11 L838.92,236.11 L839.27,236.11 L839.63,236.11 L839.98,236.11 L840.34,236.11 L840.69,236.11 L841.04,236.11 L841.40,236.11 L841.75,236.11 L842.10,236.11 L842.46,236.11 L842.81,236.11 L843.16,236.11 L843.52,236.11 L843.87,236.11 L844.22,236.11 L844.58,236.11 L844.93,236.11 L845.29,236.11 L845.64,236.11 L845.99,236.11 L846.35,236.11 L846.70,236.11 L847.05,236.11 L847.41,236.11 L847.76,236.11 L848.11,236.11 L848.47,236.11 L848.82,236.11 L849.17,236.11 L849.53,236.11 L849.88,236.11 L849.88,236.11 Z" fill="#b8451a" fill-opacity="0.12"/><path d="M520.00,236.11 L520.35,236.11 L520.71,236.11 L521.06,236.11 L521.41,236.11 L521.77,236.11 L522.12,236.11 L522.47,236.11 L522.83,236.11 L523.18,236.11 L523.54,236.11 L523.89,236.11 L524.24,236.11 L524.60,236.11 L524.95,236.11 L525.30,236.11 L525.66,236.11 L526.01,236.11 L526.36,236.11 L526.72,236.11 L527.07,236.11 L527.42,236.11 L527.78,236.11 L528.13,236.11 L528.49,236.11 L528.84,236.11 L529.19,236.11 L529.55,236.11 L529.90,236.11 L530.25,236.11 L530.61,236.11 L530.96,236.11 L531.31,236.11 L531.67,236.11 L532.02,236.11 L532.37,236.11 L532.73,236.11 L533.08,236.11 L533.44,236.11 L533.79,236.11 L534.14,236.11 L534.50,236.11 L534.85,236.11 L535.20,236.11 L535.56,236.11 L535.91,236.11 L536.26,236.11 L536.62,236.11 L536.97,236.11 L537.32,236.11 L537.68,236.11 L538.03,236.11 L538.39,236.11 L538.74,236.11 L539.09,236.11 L539.45,236.11 L539.80,236.11 L540.15,236.11 L540.51,236.11 L540.86,236.11 L541.21,236.11 L541.57,236.11 L541.92,236.11 L542.27,236.11 L542.63,236.11 L542.98,236.11 L543.34,236.11 L543.69,236.11 L544.04,236.11 L544.40,236.11 L544.75,236.11 L545.10,236.11 L545.46,236.11 L545.81,236.11 L546.16,236.11 L546.52,236.11 L546.87,236.11 L547.22,236.11 L547.58,236.11 L547.93,236.11 L548.29,236.11 L548.64,236.11 L548.99,236.11 L549.35,236.11 L549.70,236.11 L550.05,236.11 L550.41,236.11 L550.76,236.11 L551.11,236.11 L551.47,236.11 L551.82,236.11 L552.17,236.11 L552.53,236.11 L552.88,236.11 L553.24,236.11 L553.59,236.11 L553.94,236.11 L554.30,236.11 L554.65,236.11 L555.00,236.11 L555.36,236.11 L555.71,236.11 L556.06,236.11 L556.42,236.11 L556.77,236.11 L557.12,236.11 L557.48,236.11 L557.83,236.11 L558.19,236.11 L558.54,236.11 L558.89,236.11 L559.25,236.11 L559.60,236.11 L559.95,236.11 L560.31,236.11 L560.66,236.11 L561.01,236.11 L561.37,236.11 L561.72,236.11 L562.07,236.11 L562.43,236.11 L562.78,236.11 L563.14,236.11 L563.49,236.11 L563.84,236.11 L564.20,236.11 L564.55,236.11 L564.90,236.11 L565.26,236.11 L565.61,236.11 L565.96,236.11 L566.32,236.11 L566.67,236.11 L567.02,236.11 L567.38,236.11 L567.73,236.11 L568.09,236.11 L568.44,236.11 L568.79,236.11 L569.15,236.11 L569.50,236.11 L569.85,236.11 L570.21,236.11 L570.56,236.11 L570.91,236.11 L571.27,236.11 L571.62,236.11 L571.97,236.11 L572.33,236.11 L572.68,236.11 L573.04,236.11 L573.39,236.11 L573.74,236.11 L574.10,236.11 L574.45,236.11 L574.80,236.11 L575.16,236.11 L575.51,236.11 L575.86,236.11 L576.22,236.11 L576.57,236.11 L576.92,236.11 L577.28,236.11 L577.63,236.11 L577.99,236.11 L578.34,236.11 L578.69,236.11 L579.05,236.11 L579.40,236.11 L579.75,236.11 L580.11,236.11 L580.46,236.11 L580.81,236.11 L581.17,236.11 L581.52,236.11 L581.87,236.11 L582.23,236.11 L582.58,236.11 L582.94,236.11 L583.29,236.11 L583.64,236.11 L584.00,236.11 L584.35,236.11 L584.70,236.11 L585.06,236.11 L585.41,236.11 L585.76,236.11 L586.12,236.11 L586.47,236.11 L586.82,236.11 L587.18,236.11 L587.53,236.11 L587.89,236.11 L588.24,236.11 L588.59,236.11 L588.95,236.11 L589.30,236.11 L589.65,236.11 L590.01,236.11 L590.36,236.11 L590.71,236.11 L591.07,234.28 L591.42,232.44 L591.77,230.61 L592.13,228.78 L592.48,226.94 L592.84,225.11 L593.19,223.28 L593.54,221.44 L593.90,219.61 L594.25,217.78 L594.60,215.94 L594.96,214.11 L595.31,212.28 L595.66,210.44 L596.02,208.61 L596.37,206.78 L596.72,204.94 L597.08,203.11 L597.43,201.28 L597.79,199.44 L598.14,197.61 L598.49,195.78 L598.85,193.94 L599.20,192.11 L599.55,190.28 L599.91,188.44 L600.26,186.61 L600.61,184.78 L600.97,182.94 L601.32,181.11 L601.67,179.28 L602.03,177.44 L602.38,175.61 L602.74,173.78 L603.09,171.94 L603.44,170.11 L603.80,168.28 L604.15,166.44 L604.50,164.61 L604.86,162.78 L605.21,160.94 L605.56,159.11 L605.92,157.28 L606.27,155.44 L606.62,153.61 L606.98,151.78 L607.33,149.94 L607.69,148.11 L608.04,146.28 L608.39,144.44 L608.75,142.61 L609.10,140.78 L609.45,138.94 L609.81,137.11 L610.16,135.28 L610.51,133.44 L610.87,131.61 L611.22,129.78 L611.57,127.94 L611.93,126.11 L612.28,124.28 L612.64,122.44 L612.99,120.61 L613.34,118.78 L613.70,116.94 L614.05,115.11 L614.40,114.50 L614.76,116.33 L615.11,118.17 L615.46,120.00 L615.82,121.83 L616.17,123.67 L616.52,125.50 L616.88,127.33 L617.23,129.17 L617.59,131.00 L617.94,132.83 L618.29,134.67 L618.65,136.50 L619.00,138.33 L619.35,140.17 L619.71,142.00 L620.06,143.83 L620.41,145.67 L620.77,147.50 L621.12,149.33 L621.47,151.17 L621.83,153.00 L622.18,154.83 L622.54,156.67 L622.89,158.50 L623.24,160.33 L623.60,162.17 L623.95,164.00 L624.30,165.83 L624.66,167.67 L625.01,169.50 L625.36,171.33 L625.72,173.17 L626.07,175.00 L626.42,176.83 L626.78,178.67 L627.13,180.50 L627.49,182.33 L627.84,184.17 L628.19,186.00 L628.55,187.83 L628.90,189.67 L629.25,191.50 L629.61,193.33 L629.96,195.17 L630.31,197.00 L630.67,198.83 L631.02,200.67 L631.37,202.50 L631.73,204.33 L632.08,206.17 L632.44,208.00 L632.79,209.83 L633.14,211.67 L633.50,213.50 L633.85,215.33 L634.20,217.17 L634.56,219.00 L634.91,220.83 L635.26,222.67 L635.62,224.50 L635.97,226.33 L636.32,228.17 L636.68,230.00 L637.03,231.83 L637.39,233.67 L637.74,235.50 L638.09,236.11 L638.45,236.11 L638.80,236.11 L639.15,236.11 L639.51,236.11 L639.86,236.11 L640.21,236.11 L640.57,236.11 L640.92,236.11 L641.27,236.11 L641.63,236.11 L641.98,236.11 L642.34,236.11 L642.69,236.11 L643.04,236.11 L643.40,236.11 L643.75,236.11 L644.10,236.11 L644.46,236.11 L644.81,236.11 L645.16,236.11 L645.52,236.11 L645.87,236.11 L646.22,236.11 L646.58,236.11 L646.93,236.11 L647.29,236.11 L647.64,236.11 L647.99,236.11 L648.35,236.11 L648.70,236.11 L649.05,236.11 L649.41,236.11 L649.76,236.11 L650.11,236.11 L650.47,236.11 L650.82,236.11 L651.17,236.11 L651.53,236.11 L651.88,236.11 L652.24,236.11 L652.59,236.11 L652.94,236.11 L653.30,236.11 L653.65,236.11 L654.00,236.11 L654.36,236.11 L654.71,236.11 L655.06,236.11 L655.42,236.11 L655.77,236.11 L656.12,236.11 L656.48,236.11 L656.83,236.11 L657.19,236.11 L657.54,236.11 L657.89,236.11 L658.25,236.11 L658.60,236.11 L658.95,236.11 L659.31,236.11 L659.66,236.11 L660.01,236.11 L660.37,236.11 L660.72,236.11 L661.07,236.11 L661.43,236.11 L661.78,236.11 L662.14,236.11 L662.49,236.11 L662.84,236.11 L663.20,236.11 L663.55,236.11 L663.90,236.11 L664.26,236.11 L664.61,236.11 L664.96,236.11 L665.32,236.11 L665.67,236.11 L666.02,236.11 L666.38,236.11 L666.73,236.11 L667.09,236.11 L667.44,236.11 L667.79,236.11 L668.15,236.11 L668.50,236.11 L668.85,236.11 L669.21,236.11 L669.56,236.11 L669.91,236.11 L670.27,236.11 L670.62,236.11 L670.97,236.11 L671.33,236.11 L671.68,236.11 L672.04,236.11 L672.39,236.11 L672.74,236.11 L673.10,236.11 L673.45,236.11 L673.80,236.11 L674.16,236.11 L674.51,236.11 L674.86,236.11 L675.22,236.11 L675.57,236.11 L675.92,236.11 L676.28,236.11 L676.63,236.11 L676.99,236.11 L677.34,236.11 L677.69,236.11 L678.05,236.11 L678.40,236.11 L678.75,236.11 L679.11,236.11 L679.46,236.11 L679.81,236.11 L680.17,236.11 L680.52,236.11 L680.87,236.11 L681.23,236.11 L681.58,236.11 L681.94,236.11 L682.29,236.11 L682.64,236.11 L683.00,236.11 L683.35,236.11 L683.70,236.11 L684.06,236.11 L684.41,236.11 L684.76,236.11 L685.12,236.11 L685.47,236.11 L685.82,236.11 L686.18,236.11 L686.53,236.11 L686.89,236.11 L687.24,236.11 L687.59,236.11 L687.95,236.11 L688.30,236.11 L688.65,236.11 L689.01,236.11 L689.36,236.11 L689.71,236.11 L690.07,236.11 L690.42,236.11 L690.77,236.11 L691.13,236.11 L691.48,236.11 L691.84,236.11 L692.19,236.11 L692.54,236.11 L692.90,236.11 L693.25,236.11 L693.60,236.11 L693.96,236.11 L694.31,236.11 L694.66,236.11 L695.02,236.11 L695.37,236.11 L695.72,236.11 L696.08,236.11 L696.43,236.11 L696.79,236.11 L697.14,236.11 L697.49,236.11 L697.85,236.11 L698.20,236.11 L698.55,236.11 L698.91,236.11 L699.26,236.11 L699.61,236.11 L699.97,236.11 L700.32,236.11 L700.67,236.11 L701.03,236.11 L701.38,236.11 L701.74,236.11 L702.09,236.11 L702.44,236.11 L702.80,236.11 L703.15,236.11 L703.50,236.11 L703.86,236.11 L704.21,236.11 L704.56,236.11 L704.92,236.11 L705.27,236.11 L705.62,236.11 L705.98,236.11 L706.33,236.11 L706.69,236.11 L707.04,236.11 L707.39,236.11 L707.75,236.11 L708.10,236.11 L708.45,236.11 L708.81,236.11 L709.16,236.11 L709.51,236.11 L709.87,236.11 L710.22,236.11 L710.57,236.11 L710.93,236.11 L711.28,236.11 L711.64,236.11 L711.99,236.11 L712.34,236.11 L712.70,236.11 L713.05,236.11 L713.40,236.11 L713.76,236.11 L714.11,236.11 L714.46,236.11 L714.82,236.11 L715.17,236.11 L715.52,236.11 L715.88,236.11 L716.23,236.11 L716.59,236.11 L716.94,236.11 L717.29,236.11 L717.65,236.11 L718.00,236.11 L718.35,236.11 L718.71,236.11 L719.06,236.11 L719.41,236.11 L719.77,236.11 L720.12,236.11 L720.47,236.11 L720.83,236.11 L721.18,236.11 L721.54,236.11 L721.89,236.11 L722.24,236.11 L722.60,236.11 L722.95,236.11 L723.30,236.11 L723.66,236.11 L724.01,236.11 L724.36,236.11 L724.72,236.11 L725.07,236.11 L725.42,236.11 L725.78,236.11 L726.13,236.11 L726.49,236.11 L726.84,236.11 L727.19,236.11 L727.55,236.11 L727.90,236.11 L728.25,236.11 L728.61,236.11 L728.96,236.11 L729.31,236.11 L729.67,236.11 L730.02,236.11 L730.37,236.11 L730.73,236.11 L731.08,236.11 L731.44,236.11 L731.79,236.11 L732.14,236.11 L732.50,234.28 L732.85,232.44 L733.20,230.61 L733.56,228.78 L733.91,226.94 L734.26,225.11 L734.62,223.28 L734.97,221.44 L735.32,219.61 L735.68,217.78 L736.03,215.94 L736.39,214.11 L736.74,212.28 L737.09,210.44 L737.45,208.61 L737.80,206.78 L738.15,204.94 L738.51,203.11 L738.86,201.28 L739.21,199.44 L739.57,197.61 L739.92,195.78 L740.27,193.94 L740.63,192.11 L740.98,190.28 L741.34,188.44 L741.69,186.61 L742.04,184.78 L742.40,182.94 L742.75,181.11 L743.10,179.28 L743.46,177.44 L743.81,175.61 L744.16,173.78 L744.52,171.94 L744.87,170.11 L745.22,168.28 L745.58,166.44 L745.93,164.61 L746.29,162.78 L746.64,160.94 L746.99,159.11 L747.35,157.28 L747.70,155.44 L748.05,153.61 L748.41,151.78 L748.76,149.94 L749.11,148.11 L749.47,146.28 L749.82,144.44 L750.17,142.61 L750.53,140.78 L750.88,138.94 L751.24,137.11 L751.59,135.28 L751.94,133.44 L752.30,131.61 L752.65,129.78 L753.00,127.94 L753.36,126.11 L753.71,124.28 L754.06,122.44 L754.42,120.61 L754.77,118.78 L755.12,116.94 L755.48,115.11 L755.83,114.50 L756.19,116.33 L756.54,118.17 L756.89,120.00 L757.25,121.83 L757.60,123.67 L757.95,125.50 L758.31,127.33 L758.66,129.17 L759.01,131.00 L759.37,132.83 L759.72,134.67 L760.07,136.50 L760.43,138.33 L760.78,140.17 L761.14,142.00 L761.49,143.83 L761.84,145.67 L762.20,147.50 L762.55,149.33 L762.90,151.17 L763.26,153.00 L763.61,154.83 L763.96,156.67 L764.32,158.50 L764.67,160.33 L765.02,162.17 L765.38,164.00 L765.73,165.83 L766.09,167.67 L766.44,169.50 L766.79,171.33 L767.15,173.17 L767.50,175.00 L767.85,176.83 L768.21,178.67 L768.56,180.50 L768.91,182.33 L769.27,184.17 L769.62,186.00 L769.97,187.83 L770.33,189.67 L770.68,191.50 L771.04,193.33 L771.39,195.17 L771.74,197.00 L772.10,198.83 L772.45,200.67 L772.80,202.50 L773.16,204.33 L773.51,206.17 L773.86,208.00 L774.22,209.83 L774.57,211.67 L774.92,213.50 L775.28,215.33 L775.63,217.17 L775.99,219.00 L776.34,220.83 L776.69,222.67 L777.05,224.50 L777.40,226.33 L777.75,228.17 L778.11,230.00 L778.46,231.83 L778.81,233.67 L779.17,235.50 L779.52,236.11 L779.87,236.11 L780.23,236.11 L780.58,236.11 L780.94,236.11 L781.29,236.11 L781.64,236.11 L782.00,236.11 L782.35,236.11 L782.70,236.11 L783.06,236.11 L783.41,236.11 L783.76,236.11 L784.12,236.11 L784.47,236.11 L784.82,236.11 L785.18,236.11 L785.53,236.11 L785.89,236.11 L786.24,236.11 L786.59,236.11 L786.95,236.11 L787.30,236.11 L787.65,236.11 L788.01,236.11 L788.36,236.11 L788.71,236.11 L789.07,236.11 L789.42,236.11 L789.77,236.11 L790.13,236.11 L790.48,236.11 L790.84,236.11 L791.19,236.11 L791.54,236.11 L791.90,236.11 L792.25,236.11 L792.60,236.11 L792.96,236.11 L793.31,236.11 L793.66,236.11 L794.02,236.11 L794.37,236.11 L794.72,236.11 L795.08,236.11 L795.43,236.11 L795.79,236.11 L796.14,236.11 L796.49,236.11 L796.85,236.11 L797.20,236.11 L797.55,236.11 L797.91,236.11 L798.26,236.11 L798.61,236.11 L798.97,236.11 L799.32,236.11 L799.67,236.11 L800.03,236.11 L800.38,236.11 L800.74,236.11 L801.09,236.11 L801.44,236.11 L801.80,236.11 L802.15,236.11 L802.50,236.11 L802.86,236.11 L803.21,236.11 L803.56,236.11 L803.92,236.11 L804.27,236.11 L804.62,236.11 L804.98,236.11 L805.33,236.11 L805.69,236.11 L806.04,236.11 L806.39,236.11 L806.75,236.11 L807.10,236.11 L807.45,236.11 L807.81,236.11 L808.16,236.11 L808.51,236.11 L808.87,236.11 L809.22,236.11 L809.57,236.11 L809.93,236.11 L810.28,236.11 L810.64,236.11 L810.99,236.11 L811.34,236.11 L811.70,236.11 L812.05,236.11 L812.40,236.11 L812.76,236.11 L813.11,236.11 L813.46,236.11 L813.82,236.11 L814.17,236.11 L814.52,236.11 L814.88,236.11 L815.23,236.11 L815.59,236.11 L815.94,236.11 L816.29,236.11 L816.65,236.11 L817.00,236.11 L817.35,236.11 L817.71,236.11 L818.06,236.11 L818.41,236.11 L818.77,236.11 L819.12,236.11 L819.47,236.11 L819.83,236.11 L820.18,236.11 L820.54,236.11 L820.89,236.11 L821.24,236.11 L821.60,236.11 L821.95,236.11 L822.30,236.11 L822.66,236.11 L823.01,236.11 L823.36,236.11 L823.72,236.11 L824.07,236.11 L824.42,236.11 L824.78,236.11 L825.13,236.11 L825.49,236.11 L825.84,236.11 L826.19,236.11 L826.55,236.11 L826.90,236.11 L827.25,236.11 L827.61,236.11 L827.96,236.11 L828.31,236.11 L828.67,236.11 L829.02,236.11 L829.37,236.11 L829.73,236.11 L830.08,236.11 L830.44,236.11 L830.79,236.11 L831.14,236.11 L831.50,236.11 L831.85,236.11 L832.20,236.11 L832.56,236.11 L832.91,236.11 L833.26,236.11 L833.62,236.11 L833.97,236.11 L834.32,236.11 L834.68,236.11 L835.03,236.11 L835.39,236.11 L835.74,236.11 L836.09,236.11 L836.45,236.11 L836.80,236.11 L837.15,236.11 L837.51,236.11 L837.86,236.11 L838.21,236.11 L838.57,236.11 L838.92,236.11 L839.27,236.11 L839.63,236.11 L839.98,236.11 L840.34,236.11 L840.69,236.11 L841.04,236.11 L841.40,236.11 L841.75,236.11 L842.10,236.11 L842.46,236.11 L842.81,236.11 L843.16,236.11 L843.52,236.11 L843.87,236.11 L844.22,236.11 L844.58,236.11 L844.93,236.11 L845.29,236.11 L845.64,236.11 L845.99,236.11 L846.35,236.11 L846.70,236.11 L847.05,236.11 L847.41,236.11 L847.76,236.11 L848.11,236.11 L848.47,236.11 L848.82,236.11 L849.17,236.11 L849.53,236.11 L849.88,236.11" fill="none" stroke="#b8451a" stroke-width="2.5" stroke-linejoin="round" stroke-linecap="round"/><text x="755" y="194" fill="#6b6b7d" font-size="12">ωc</text>
</svg>
